<svg xmlns="http://www.w3.org/2000/svg" xmlns:xlink="http://www.w3.org/1999/xlink" width="500" zoomAndPan="magnify" viewBox="0 0 375 374.999991" height="500" preserveAspectRatio="xMidYMid meet" version="1.0"><defs><clipPath id="e07dc26b0a"><path d="M 6 0 L 375 0 L 375 375 L 6 375 Z M 6 0 " clip-rule="nonzero"/></clipPath><clipPath id="219964ed9c"><path d="M 6.421875 89.585938 L 266.09375 -22.292969 L 398.746094 285.59375 L 139.074219 397.476562 Z M 6.421875 89.585938 " clip-rule="nonzero"/></clipPath><clipPath id="ca2520dc18"><path d="M 264 225 L 339 225 L 339 314 L 264 314 Z M 264 225 " clip-rule="nonzero"/></clipPath><clipPath id="cc261191bc"><path d="M 0.421875 89.585938 L 260.09375 -22.292969 L 392.746094 285.59375 L 133.074219 397.476562 Z M 0.421875 89.585938 " clip-rule="nonzero"/></clipPath><clipPath id="1ebbed844e"><path d="M 259.953125 -22.234375 L 0.28125 89.648438 L 132.933594 397.535156 L 392.605469 285.65625 Z M 259.953125 -22.234375 " clip-rule="nonzero"/></clipPath><clipPath id="f7b8488eff"><path d="M 263 224 L 340 224 L 340 315 L 263 315 Z M 263 224 " clip-rule="nonzero"/></clipPath><clipPath id="a26006473e"><path d="M 0.421875 89.585938 L 260.09375 -22.292969 L 392.746094 285.59375 L 133.074219 397.476562 Z M 0.421875 89.585938 " clip-rule="nonzero"/></clipPath><clipPath id="9aadfc27d8"><path d="M 259.953125 -22.234375 L 0.28125 89.648438 L 132.933594 397.535156 L 392.605469 285.65625 Z M 259.953125 -22.234375 " clip-rule="nonzero"/></clipPath><clipPath id="31c05222f1"><path d="M 9 80 L 53 80 L 53 124 L 9 124 Z M 9 80 " clip-rule="nonzero"/></clipPath><clipPath id="6d6a822c9c"><path d="M 0.421875 89.585938 L 260.09375 -22.292969 L 392.746094 285.59375 L 133.074219 397.476562 Z M 0.421875 89.585938 " clip-rule="nonzero"/></clipPath><clipPath id="5f89935fe0"><path d="M 259.953125 -22.234375 L 0.28125 89.648438 L 132.933594 397.535156 L 392.605469 285.65625 Z M 259.953125 -22.234375 " clip-rule="nonzero"/></clipPath><clipPath id="053e2d8039"><path d="M 8 79 L 54 79 L 54 125 L 8 125 Z M 8 79 " clip-rule="nonzero"/></clipPath><clipPath id="934e839c7f"><path d="M 0.421875 89.585938 L 260.09375 -22.292969 L 392.746094 285.59375 L 133.074219 397.476562 Z M 0.421875 89.585938 " clip-rule="nonzero"/></clipPath><clipPath id="f2106d9857"><path d="M 259.953125 -22.234375 L 0.28125 89.648438 L 132.933594 397.535156 L 392.605469 285.65625 Z M 259.953125 -22.234375 " clip-rule="nonzero"/></clipPath><clipPath id="e1aea367de"><path d="M 165 141 L 345 141 L 345 262 L 165 262 Z M 165 141 " clip-rule="nonzero"/></clipPath><clipPath id="d5f1a19389"><path d="M 0.421875 89.585938 L 260.09375 -22.292969 L 392.746094 285.59375 L 133.074219 397.476562 Z M 0.421875 89.585938 " clip-rule="nonzero"/></clipPath><clipPath id="b01d5f5282"><path d="M 259.953125 -22.234375 L 0.28125 89.648438 L 132.933594 397.535156 L 392.605469 285.65625 Z M 259.953125 -22.234375 " clip-rule="nonzero"/></clipPath><clipPath id="7b5df2ba21"><path d="M 164 140 L 346 140 L 346 263 L 164 263 Z M 164 140 " clip-rule="nonzero"/></clipPath><clipPath id="3b68917106"><path d="M 0.421875 89.585938 L 260.09375 -22.292969 L 392.746094 285.59375 L 133.074219 397.476562 Z M 0.421875 89.585938 " clip-rule="nonzero"/></clipPath><clipPath id="98aefb8296"><path d="M 259.953125 -22.234375 L 0.28125 89.648438 L 132.933594 397.535156 L 392.605469 285.65625 Z M 259.953125 -22.234375 " clip-rule="nonzero"/></clipPath><clipPath id="dd4959e511"><path d="M 165 151 L 342 151 L 342 241 L 165 241 Z M 165 151 " clip-rule="nonzero"/></clipPath><clipPath id="41e729bab2"><path d="M 0.421875 89.585938 L 260.09375 -22.292969 L 392.746094 285.59375 L 133.074219 397.476562 Z M 0.421875 89.585938 " clip-rule="nonzero"/></clipPath><clipPath id="b1fba6b4ae"><path d="M 259.953125 -22.234375 L 0.28125 89.648438 L 132.933594 397.535156 L 392.605469 285.65625 Z M 259.953125 -22.234375 " clip-rule="nonzero"/></clipPath><clipPath id="398386ff90"><path d="M 164 150 L 343 150 L 343 242 L 164 242 Z M 164 150 " clip-rule="nonzero"/></clipPath><clipPath id="758b207ec9"><path d="M 0.421875 89.585938 L 260.09375 -22.292969 L 392.746094 285.59375 L 133.074219 397.476562 Z M 0.421875 89.585938 " clip-rule="nonzero"/></clipPath><clipPath id="9d01b54aac"><path d="M 259.953125 -22.234375 L 0.28125 89.648438 L 132.933594 397.535156 L 392.605469 285.65625 Z M 259.953125 -22.234375 " clip-rule="nonzero"/></clipPath><clipPath id="77f0e84524"><path d="M 165 152 L 341 152 L 341 228 L 165 228 Z M 165 152 " clip-rule="nonzero"/></clipPath><clipPath id="d36b2a7e5c"><path d="M 0.421875 89.585938 L 260.09375 -22.292969 L 392.746094 285.59375 L 133.074219 397.476562 Z M 0.421875 89.585938 " clip-rule="nonzero"/></clipPath><clipPath id="2d663d8dda"><path d="M 259.953125 -22.234375 L 0.28125 89.648438 L 132.933594 397.535156 L 392.605469 285.65625 Z M 259.953125 -22.234375 " clip-rule="nonzero"/></clipPath><clipPath id="4702cfaeb1"><path d="M 164 151 L 342 151 L 342 229 L 164 229 Z M 164 151 " clip-rule="nonzero"/></clipPath><clipPath id="db0ae72fea"><path d="M 0.421875 89.585938 L 260.09375 -22.292969 L 392.746094 285.59375 L 133.074219 397.476562 Z M 0.421875 89.585938 " clip-rule="nonzero"/></clipPath><clipPath id="8954fd34b8"><path d="M 259.953125 -22.234375 L 0.28125 89.648438 L 132.933594 397.535156 L 392.605469 285.65625 Z M 259.953125 -22.234375 " clip-rule="nonzero"/></clipPath><clipPath id="52ca1cdeea"><path d="M 43 93 L 188 93 L 188 181 L 43 181 Z M 43 93 " clip-rule="nonzero"/></clipPath><clipPath id="1e1bce93f1"><path d="M 0.421875 89.585938 L 260.09375 -22.292969 L 392.746094 285.59375 L 133.074219 397.476562 Z M 0.421875 89.585938 " clip-rule="nonzero"/></clipPath><clipPath id="822b4e9635"><path d="M 259.953125 -22.234375 L 0.28125 89.648438 L 132.933594 397.535156 L 392.605469 285.65625 Z M 259.953125 -22.234375 " clip-rule="nonzero"/></clipPath><clipPath id="791a680969"><path d="M 42 92 L 189 92 L 189 183 L 42 183 Z M 42 92 " clip-rule="nonzero"/></clipPath><clipPath id="f047f82d8a"><path d="M 0.421875 89.585938 L 260.09375 -22.292969 L 392.746094 285.59375 L 133.074219 397.476562 Z M 0.421875 89.585938 " clip-rule="nonzero"/></clipPath><clipPath id="1923c91e36"><path d="M 259.953125 -22.234375 L 0.28125 89.648438 L 132.933594 397.535156 L 392.605469 285.65625 Z M 259.953125 -22.234375 " clip-rule="nonzero"/></clipPath><clipPath id="8c50a326dc"><rect x="0" width="369" y="0" height="375"/></clipPath></defs><g clip-path="url(#e07dc26b0a)"><g clip-path="url(#219964ed9c)"><g transform="matrix(1, 0, 0, 1, 6, 0)"><g clip-path="url(#8c50a326dc)"><g clip-path="url(#ca2520dc18)"><g clip-path="url(#cc261191bc)"><g clip-path="url(#1ebbed844e)"><path fill="#7f472c" d="M 338.546875 225.378906 C 338.546875 225.378906 339.617188 236.65625 329.59375 254.101562 C 322.957031 265.644531 313.890625 271.550781 319.582031 286.179688 C 323.3125 295.789062 334.566406 308.589844 327.742188 312.191406 C 320.332031 316.097656 317.578125 309.425781 313.753906 295.738281 C 309.929688 282.054688 303.90625 268.074219 296.707031 268.6875 C 289.515625 269.304688 303.480469 284 294.492188 286.082031 C 285.582031 288.140625 289.347656 271.746094 276.761719 262.78125 C 272.289062 259.597656 264.265625 257.429688 264.265625 257.429688 C 264.265625 257.429688 286.695312 258.917969 305.042969 251.011719 C 323.390625 243.105469 338.546875 225.386719 338.546875 225.386719 Z M 338.546875 225.378906 " fill-opacity="1" fill-rule="nonzero"/></g></g></g><g clip-path="url(#f7b8488eff)"><g clip-path="url(#a26006473e)"><g clip-path="url(#9aadfc27d8)"><path fill="#ff90aa" d="M 327.230469 313.554688 C 327.550781 313.414062 327.871094 313.261719 328.207031 313.085938 C 329.472656 312.417969 330.308594 311.433594 330.679688 310.160156 C 331.761719 306.4375 328.617188 300.929688 325.289062 295.089844 C 323.492188 291.945312 321.636719 288.695312 320.515625 285.816406 C 316.363281 275.117188 320.425781 269.355469 325.566406 262.0625 C 327.199219 259.75 328.882812 257.351562 330.464844 254.605469 C 340.539062 237.085938 339.597656 225.761719 339.554688 225.285156 C 339.515625 224.882812 339.234375 224.542969 338.851562 224.417969 C 338.464844 224.296875 338.046875 224.417969 337.777344 224.722656 C 337.625 224.902344 322.550781 242.359375 304.640625 250.078125 C 286.730469 257.792969 264.546875 256.425781 264.328125 256.414062 C 263.8125 256.378906 263.355469 256.742188 263.265625 257.257812 C 263.183594 257.773438 263.496094 258.269531 264 258.398438 C 264.078125 258.417969 271.90625 260.558594 276.171875 263.601562 C 282.171875 267.875 284.304688 273.949219 286.023438 278.816406 C 287.8125 283.910156 289.355469 288.300781 294.714844 287.0625 C 296.324219 286.6875 297.453125 285.914062 298.082031 284.761719 C 299.394531 282.328125 298.132812 278.9375 296.917969 275.664062 C 296.144531 273.585938 295.1875 270.992188 295.730469 270.125 C 295.886719 269.882812 296.242188 269.738281 296.796875 269.6875 C 302.152344 269.234375 307.976562 278.828125 312.78125 296.003906 C 315.734375 306.554688 317.917969 312.210938 321.710938 313.839844 C 323.335938 314.539062 325.152344 314.445312 327.242188 313.546875 Z M 337.5 228.03125 C 337.214844 232.246094 335.714844 241.417969 328.714844 253.597656 C 327.183594 256.261719 325.527344 258.617188 323.917969 260.898438 C 318.644531 268.378906 314.089844 274.84375 318.632812 286.550781 C 319.808594 289.578125 321.699219 292.890625 323.527344 296.097656 C 326.5 301.308594 329.578125 306.703125 328.738281 309.601562 C 328.519531 310.347656 328.054688 310.886719 327.261719 311.304688 C 325.335938 312.328125 323.773438 312.550781 322.503906 311.996094 C 319.175781 310.5625 317.007812 303.667969 314.722656 295.472656 C 308.105469 271.792969 301.230469 267.292969 296.625 267.683594 C 295.410156 267.789062 294.535156 268.242188 294.023438 269.046875 C 292.933594 270.753906 293.90625 273.355469 295.019531 276.371094 C 296.027344 279.09375 297.175781 282.183594 296.296875 283.808594 C 295.953125 284.441406 295.292969 284.863281 294.257812 285.097656 C 290.804688 285.894531 289.820312 283.542969 287.921875 278.152344 C 286.117188 273.007812 283.859375 266.601562 277.339844 261.953125 C 275.429688 260.589844 272.929688 259.425781 270.648438 258.519531 C 278.746094 258.371094 293.070312 257.265625 305.433594 251.9375 C 320.125 245.605469 332.902344 232.933594 337.496094 228.03125 Z M 337.5 228.03125 " fill-opacity="1" fill-rule="nonzero"/></g></g></g><g clip-path="url(#31c05222f1)"><g clip-path="url(#6d6a822c9c)"><g clip-path="url(#5f89935fe0)"><path fill="#ff90aa" d="M 50.847656 109.671875 C 46.507812 120.585938 34.148438 125.910156 23.234375 121.570312 C 12.320312 117.230469 6.996094 104.871094 11.335938 93.957031 C 15.675781 83.042969 28.035156 77.71875 38.949219 82.058594 C 49.863281 86.398438 55.1875 98.757812 50.847656 109.671875 Z M 22.074219 98.226562 C 20.09375 103.210938 22.523438 108.855469 27.503906 110.832031 C 32.492188 112.8125 38.132812 110.382812 40.109375 105.402344 C 42.085938 100.417969 39.660156 94.773438 34.679688 92.796875 C 29.695312 90.820312 24.050781 93.246094 22.074219 98.226562 Z M 22.074219 98.226562 " fill-opacity="1" fill-rule="nonzero"/></g></g></g><g clip-path="url(#053e2d8039)"><g clip-path="url(#934e839c7f)"><g clip-path="url(#f2106d9857)"><path fill="#ff90aa" d="M 39.90625 122.269531 C 45.367188 119.914062 49.585938 115.574219 51.785156 110.050781 C 56.324219 98.640625 50.734375 85.667969 39.320312 81.125 C 33.796875 78.925781 27.746094 79.011719 22.28125 81.367188 C 16.820312 83.71875 12.601562 88.058594 10.402344 93.585938 C 8.203125 99.109375 8.292969 105.160156 10.644531 110.625 C 13 116.085938 17.335938 120.304688 22.863281 122.503906 C 28.386719 124.703125 34.4375 124.613281 39.902344 122.261719 Z M 49.90625 109.304688 C 47.910156 114.324219 44.066406 118.273438 39.105469 120.410156 C 34.136719 122.550781 28.632812 122.628906 23.613281 120.632812 C 18.585938 118.636719 14.636719 114.796875 12.496094 109.832031 C 10.359375 104.871094 10.28125 99.363281 12.285156 94.335938 C 14.28125 89.316406 18.121094 85.367188 23.085938 83.230469 C 28.054688 81.089844 33.554688 81.011719 38.578125 83.007812 C 48.949219 87.136719 54.03125 98.929688 49.910156 109.308594 Z M 35.332031 111.65625 C 37.957031 110.527344 39.988281 108.4375 41.050781 105.777344 C 42.109375 103.117188 42.070312 100.207031 40.933594 97.574219 C 39.800781 94.941406 37.714844 92.917969 35.054688 91.855469 C 32.398438 90.796875 29.484375 90.835938 26.851562 91.972656 C 24.21875 93.105469 22.195312 95.191406 21.132812 97.851562 C 20.074219 100.507812 20.117188 103.421875 21.25 106.054688 C 22.382812 108.6875 24.46875 110.710938 27.128906 111.773438 C 29.789062 112.832031 32.699219 112.789062 35.332031 111.65625 Z M 27.652344 93.828125 C 29.785156 92.910156 32.148438 92.878906 34.308594 93.734375 C 36.464844 94.585938 38.160156 96.242188 39.078125 98.375 C 39.996094 100.507812 40.027344 102.871094 39.171875 105.027344 C 38.316406 107.183594 36.664062 108.882812 34.53125 109.800781 C 32.398438 110.71875 30.039062 110.75 27.878906 109.894531 C 25.71875 109.042969 24.023438 107.386719 23.105469 105.253906 C 22.1875 103.121094 22.15625 100.757812 23.011719 98.597656 C 23.867188 96.445312 25.519531 94.746094 27.652344 93.828125 Z M 27.652344 93.828125 " fill-opacity="1" fill-rule="nonzero"/></g></g></g><g clip-path="url(#e1aea367de)"><g clip-path="url(#d5f1a19389)"><g clip-path="url(#b01d5f5282)"><path fill="#ff90aa" d="M 165.796875 155.394531 C 165.734375 155.550781 165.683594 155.710938 165.636719 155.875 C 160.84375 174.347656 238.253906 247.070312 264.253906 257.417969 C 294.152344 269.3125 328.355469 254.734375 340.488281 224.914062 L 340.507812 224.859375 C 352.171875 194.855469 337.328125 160.765625 307.429688 148.875 C 281.433594 138.535156 175.207031 138.222656 166.011719 154.9375 C 165.929688 155.085938 165.859375 155.238281 165.796875 155.394531 Z M 332.988281 221.90625 C 322.511719 247.601562 293.027344 260.167969 267.246094 249.910156 C 255.175781 245.109375 231.789062 226.636719 209.050781 203.941406 C 184.398438 179.332031 173.660156 162.949219 173.4375 158.414062 C 182.144531 149.277344 277.183594 145.550781 304.4375 156.394531 C 330.21875 166.652344 343.015625 196.035156 332.980469 221.90625 Z M 332.988281 221.90625 " fill-opacity="1" fill-rule="nonzero"/></g></g></g><g clip-path="url(#7b5df2ba21)"><g clip-path="url(#3b68917106)"><g clip-path="url(#98aefb8296)"><path fill="#ff90aa" d="M 309.667969 257.710938 C 323.636719 251.695312 335.335938 240.433594 341.484375 225.328125 L 341.511719 225.261719 C 353.390625 194.703125 338.277344 159.992188 307.824219 147.875 C 295.253906 142.875 263.410156 139.914062 230.394531 140.683594 C 213.894531 141.066406 199.28125 142.359375 188.136719 144.425781 C 175.152344 146.832031 167.390625 150.199219 165.066406 154.425781 C 164.964844 154.613281 164.875 154.804688 164.792969 155.007812 C 164.714844 155.210938 164.648438 155.40625 164.59375 155.617188 C 163.378906 160.285156 166.710938 168.058594 174.5 178.730469 C 181.175781 187.886719 190.910156 198.863281 202.640625 210.476562 C 226.113281 233.707031 251.28125 253.429688 263.855469 258.433594 C 279.15625 264.519531 295.566406 263.796875 309.671875 257.71875 Z M 173.472656 150.691406 C 183.570312 146.339844 203.902344 143.457031 230.445312 142.839844 C 262.6875 142.09375 294.894531 145.050781 307.035156 149.878906 C 336.390625 161.554688 350.960938 195.019531 339.507812 224.472656 C 327.582031 253.785156 294.007812 268.097656 264.648438 256.417969 C 252.507812 251.589844 227.070312 231.617188 204.15625 208.933594 C 179.039062 184.070312 164.683594 163.847656 166.683594 156.152344 C 166.714844 156.03125 166.757812 155.914062 166.796875 155.800781 C 166.839844 155.683594 166.898438 155.574219 166.957031 155.464844 C 167.914062 153.734375 170.128906 152.132812 173.472656 150.691406 Z M 306.472656 250.289062 C 318.542969 245.089844 328.664062 235.359375 333.980469 222.3125 L 333.988281 222.292969 C 344.238281 195.875 331.164062 165.859375 304.835938 155.386719 C 290.183594 149.558594 257.582031 148.179688 231.957031 148.832031 C 217.707031 149.195312 204.085938 150.195312 193.597656 151.648438 C 181.96875 153.265625 174.921875 155.285156 172.652344 157.667969 L 172.332031 158 L 172.355469 158.460938 C 172.707031 165.613281 190.691406 187.132812 208.28125 204.695312 C 231.117188 227.492188 254.644531 246.0625 266.835938 250.90625 C 280.070312 256.167969 294.261719 255.542969 306.460938 250.285156 Z M 331.984375 221.5 C 321.734375 246.644531 292.871094 258.9375 267.644531 248.902344 C 255.707031 244.152344 232.464844 225.769531 209.816406 203.167969 C 185.382812 178.777344 175.441406 163.398438 174.582031 158.832031 C 179.34375 154.996094 203.132812 151.722656 232.019531 150.984375 C 257.433594 150.339844 289.695312 151.683594 304.046875 157.390625 C 329.269531 167.425781 341.804688 196.183594 331.984375 221.5 Z M 331.984375 221.5 " fill-opacity="1" fill-rule="nonzero"/></g></g></g><g clip-path="url(#dd4959e511)"><g clip-path="url(#41e729bab2)"><g clip-path="url(#b1fba6b4ae)"><path fill="#ff90aa" d="M 165.796875 155.394531 C 165.679688 155.6875 165.601562 155.996094 165.550781 156.304688 C 165.1875 158.777344 164.34375 164.554688 209.269531 195.371094 C 229.113281 208.984375 257.910156 227.121094 273.796875 233.4375 C 304.191406 245.523438 333.484375 241.792969 340.484375 224.945312 L 340.527344 224.835938 C 347.015625 207.78125 328.292969 184.945312 297.898438 172.855469 C 282.011719 166.535156 248.621094 159.9375 224.855469 156.199219 C 171.042969 147.746094 167.6875 152.523438 166.25 154.5625 C 166.066406 154.824219 165.917969 155.101562 165.804688 155.394531 Z M 173.476562 156.375 L 173.488281 156.347656 Z M 332.988281 221.90625 C 327.824219 234.152344 302.117188 236.003906 276.78125 225.929688 C 251.921875 216.042969 188.835938 173.128906 175.742188 159.363281 C 194.71875 158.347656 270.046875 170.492188 294.90625 180.378906 C 320.234375 190.453125 337.652344 209.453125 332.988281 221.910156 Z M 332.988281 221.90625 " fill-opacity="1" fill-rule="nonzero"/></g></g></g><g clip-path="url(#398386ff90)"><g clip-path="url(#758b207ec9)"><g clip-path="url(#9d01b54aac)"><path fill="#ff90aa" d="M 328.125 237.917969 C 334.453125 235.191406 339.140625 230.976562 341.476562 225.359375 L 341.527344 225.234375 C 348.238281 207.605469 329.238281 184.167969 298.292969 171.851562 C 282.332031 165.503906 248.839844 158.878906 225.019531 155.132812 C 201.839844 151.488281 185.304688 149.882812 175.855469 150.371094 C 168.226562 150.757812 166.445312 152.421875 165.371094 153.945312 C 165.140625 154.273438 164.949219 154.628906 164.804688 154.996094 C 164.660156 155.363281 164.554688 155.757812 164.496094 156.144531 C 164.226562 157.992188 164.378906 160.425781 169.660156 165.949219 C 176.199219 172.789062 189.320312 182.980469 208.660156 196.257812 C 228.546875 209.898438 257.429688 228.082031 273.398438 234.433594 C 294.363281 242.773438 314.847656 243.628906 328.132812 237.914062 Z M 168.984375 153.734375 C 172.734375 152.117188 184.390625 150.9375 224.679688 157.269531 C 248.394531 160.992188 281.691406 167.578125 297.496094 173.859375 C 327.339844 185.730469 345.796875 207.949219 339.519531 224.449219 L 339.480469 224.550781 C 337.351562 229.675781 333.054688 233.53125 327.230469 236.039062 C 314.550781 241.5 294.644531 240.570312 274.195312 232.4375 C 258.386719 226.148438 229.671875 208.0625 209.878906 194.484375 C 165.515625 164.050781 166.351562 158.339844 166.621094 156.46875 C 166.660156 156.238281 166.714844 156.011719 166.804688 155.796875 C 166.886719 155.578125 166.996094 155.378906 167.136719 155.191406 C 167.398438 154.8125 167.796875 154.253906 168.992188 153.738281 Z M 324.941406 230.617188 C 329.375 228.707031 332.46875 225.902344 333.976562 222.320312 L 333.992188 222.285156 C 336.394531 215.859375 333.550781 207.773438 325.984375 199.515625 C 318.59375 191.457031 307.695312 184.300781 295.296875 179.367188 C 270.796875 169.621094 195.902344 157.199219 175.679688 158.277344 L 173.339844 158.402344 L 174.953125 160.097656 C 188.902344 174.769531 251.875 217.179688 276.375 226.925781 C 288.773438 231.859375 301.609375 234.140625 312.515625 233.359375 C 317.363281 233.007812 321.539062 232.074219 324.933594 230.613281 Z M 331.984375 221.5 C 327.023438 233.195312 301.941406 234.769531 277.183594 224.921875 C 252.910156 215.269531 193.996094 175.082031 178.316406 160.382812 C 199.808594 160.46875 270.226562 171.71875 294.507812 181.371094 C 319.265625 191.21875 336.414062 209.59375 331.984375 221.5 Z M 174.488281 156.769531 L 174.5 156.742188 L 172.484375 155.960938 L 174.488281 156.761719 Z M 174.488281 156.769531 " fill-opacity="1" fill-rule="nonzero"/></g></g></g><g clip-path="url(#77f0e84524)"><g clip-path="url(#d36b2a7e5c)"><g clip-path="url(#2d663d8dda)"><path fill="#ff90aa" d="M 165.796875 155.394531 C 164.972656 157.464844 165.988281 159.824219 168.058594 160.648438 L 335.246094 227.148438 C 337.316406 227.972656 339.675781 226.957031 340.496094 224.886719 C 341.320312 222.816406 340.304688 220.460938 338.234375 219.636719 L 171.046875 153.132812 C 168.976562 152.308594 166.621094 153.324219 165.796875 155.394531 Z M 165.796875 155.394531 " fill-opacity="1" fill-rule="nonzero"/></g></g></g><g clip-path="url(#4702cfaeb1)"><g clip-path="url(#db0ae72fea)"><g clip-path="url(#8954fd34b8)"><path fill="#ff90aa" d="M 338.769531 228.097656 C 340.023438 227.558594 341 226.5625 341.5 225.289062 C 342.003906 224.015625 341.984375 222.628906 341.445312 221.375 C 340.902344 220.117188 339.90625 219.144531 338.636719 218.644531 L 171.449219 152.140625 C 170.175781 151.632812 168.785156 151.65625 167.53125 152.195312 C 166.277344 152.738281 165.300781 153.734375 164.800781 155.003906 C 164.292969 156.277344 164.316406 157.667969 164.855469 158.921875 C 165.398438 160.175781 166.394531 161.152344 167.664062 161.652344 L 334.851562 228.15625 C 336.125 228.660156 337.511719 228.640625 338.769531 228.097656 Z M 168.382812 154.167969 C 169.109375 153.855469 169.910156 153.84375 170.652344 154.132812 L 337.839844 220.632812 C 338.570312 220.925781 339.148438 221.488281 339.460938 222.21875 C 339.777344 222.949219 339.789062 223.75 339.5 224.488281 C 339.210938 225.230469 338.644531 225.804688 337.917969 226.121094 C 337.1875 226.433594 336.386719 226.445312 335.644531 226.152344 L 168.457031 159.648438 C 167.722656 159.355469 167.140625 158.796875 166.824219 158.066406 C 166.511719 157.335938 166.5 156.535156 166.796875 155.792969 C 167.089844 155.050781 167.652344 154.484375 168.382812 154.167969 Z M 168.382812 154.167969 " fill-opacity="1" fill-rule="nonzero"/></g></g></g><g clip-path="url(#52ca1cdeea)"><g clip-path="url(#1e1bce93f1)"><g clip-path="url(#822b4e9635)"><path fill="#ff90aa" d="M 44.859375 107.292969 C 40.40625 118.484375 45.878906 131.179688 57.066406 135.632812 L 170.976562 180.941406 L 187.105469 140.394531 L 73.195312 95.085938 C 62.007812 90.632812 49.308594 96.105469 44.859375 107.292969 Z M 44.859375 107.292969 " fill-opacity="1" fill-rule="nonzero"/></g></g></g><g clip-path="url(#791a680969)"><g clip-path="url(#f047f82d8a)"><g clip-path="url(#1923c91e36)"><path fill="#ff90aa" d="M 171.582031 182.339844 L 188.507812 139.785156 L 73.59375 94.078125 C 61.867188 89.414062 48.527344 95.160156 43.855469 106.890625 C 39.191406 118.621094 44.941406 131.964844 56.667969 136.628906 Z M 185.703125 140.996094 L 170.375 179.535156 L 57.46875 134.625 C 46.839844 130.394531 41.632812 118.3125 45.859375 107.683594 C 50.089844 97.054688 62.171875 91.847656 72.792969 96.078125 L 185.699219 140.988281 Z M 185.703125 140.996094 " fill-opacity="1" fill-rule="nonzero"/></g></g></g></g></g></g></g></svg>