<svg width="53" height="53" viewBox="0 0 53 53" fill="none" xmlns="http://www.w3.org/2000/svg">
<path d="M26.0711 0C11.669 0 0.00012207 11.6689 0.00012207 26.071C0.00012207 40.4731 11.669 52.142 26.0711 52.142C40.4732 52.142 52.1421 40.4731 52.1421 26.071C52.1421 11.6689 40.4732 0 26.0711 0ZM38.2656 30.6965H26.0711V38.1498C26.0711 39.2747 24.7045 39.8424 23.916 39.0434L11.9003 26.9645C11.4062 26.4705 11.4062 25.682 11.9003 25.1879L23.916 13.0986C24.715 12.2996 26.0711 12.8673 26.0711 13.9921V21.4455H38.2656C38.9594 21.4455 39.5271 22.0132 39.5271 22.707V29.435C39.5271 30.1288 38.9594 30.6965 38.2656 30.6965Z" fill="#C94D59"/>
</svg>
