<svg width="53" height="53" viewBox="0 0 53 53" fill="none" xmlns="http://www.w3.org/2000/svg">
<path d="M26.071 0C40.4731 0 52.142 11.6689 52.142 26.071C52.142 40.4731 40.4731 52.142 26.071 52.142C11.6689 52.142 0 40.4731 0 26.071C0 11.6689 11.6689 0 26.071 0ZM13.8765 30.6965H26.071V38.1498C26.071 39.2747 27.4376 39.8424 28.226 39.0434L40.2418 26.9645C40.7359 26.4705 40.7359 25.682 40.2418 25.1879L28.226 13.0986C27.4271 12.2996 26.071 12.8673 26.071 13.9921V21.4455H13.8765C13.1827 21.4455 12.615 22.0132 12.615 22.707V29.435C12.615 30.1288 13.1827 30.6965 13.8765 30.6965Z" fill="#C94D59"/>
</svg>
