<svg width="41" height="41" viewBox="0 0 41 41" fill="none" xmlns="http://www.w3.org/2000/svg">
<path d="M39.8307 28.9721L30.8618 25.1282C30.4787 24.9649 30.0529 24.9305 29.6485 25.0302C29.2441 25.1298 28.883 25.3582 28.6196 25.6808L24.6477 30.5336C18.4141 27.5945 13.3975 22.5779 10.4584 16.3443L15.3112 12.3724C15.6345 12.1094 15.8633 11.7484 15.963 11.3438C16.0627 10.9392 16.0278 10.5132 15.8638 10.1301L12.0199 1.16123C11.8398 0.748345 11.5213 0.411239 11.1193 0.20804C10.7173 0.00484093 10.257 -0.0517158 9.81775 0.0481224L1.48948 1.97003C1.06599 2.06782 0.688159 2.30627 0.417643 2.64645C0.147126 2.98663 -9.75537e-05 3.40846 4.84978e-08 3.84309C4.84978e-08 24.3835 16.6485 41 37.1569 41C37.5917 41.0003 38.0137 40.8531 38.354 40.5826C38.6944 40.3121 38.9329 39.9341 39.0308 39.5105L40.9527 31.1822C41.0519 30.7409 40.9941 30.2787 40.7893 29.8753C40.5846 29.4719 40.2456 29.1525 39.8307 28.9721Z" fill="#C94D59"/>
</svg>
