<svg width="356" height="40" viewBox="0 0 356 40" fill="none" xmlns="http://www.w3.org/2000/svg">
<path d="M0 31.1199C0 29.7599 0.293333 28.5333 0.88 27.4399C1.49333 26.3199 2.28 25.4533 3.24 24.8399C4.2 24.1999 5.18667 23.8799 6.2 23.8799C6.92 23.8799 7.54667 24.0666 8.08 24.4399C8.64 24.7866 8.92 25.1333 8.92 25.4799C8.92 25.7999 8.62667 25.9599 8.04 25.9599C6.70667 25.9599 5.53333 26.3333 4.52 27.0799C3.53333 27.8266 3.04 28.8399 3.04 30.1199C3.04 31.3466 3.41333 32.3066 4.16 32.9999C4.93333 33.6666 5.90667 33.9999 7.08 33.9999C11.2133 33.9999 14.8933 31.1599 18.12 25.4799C21.3467 19.7999 24.2933 12.4266 26.96 3.35992C24.8 3.70659 22.8133 4.39992 21 5.43992C19.2133 6.47992 17.7867 7.82659 16.72 9.47992C15.6533 11.1333 15.12 12.9999 15.12 15.0799C15.12 15.5866 14.96 15.8399 14.64 15.8399C14.3733 15.8399 14.0533 15.6533 13.68 15.2799C13.3333 14.8799 13.0267 14.3333 12.76 13.6399C12.52 12.9466 12.4 12.1866 12.4 11.3599C12.4 9.78659 13.2667 8.19992 15 6.59992C16.76 4.97326 18.9467 3.63992 21.56 2.59992C24.1733 1.53326 26.6933 0.999923 29.12 0.999923C29.9467 0.999923 30.56 1.17326 30.96 1.51992C31.36 1.83992 31.56 2.37326 31.56 3.11992C31.56 10.8533 31.8 16.9466 32.28 21.3999C32.7867 25.8266 33.3733 28.5733 34.04 29.6399C34.7333 25.9333 35.8133 21.9199 37.28 17.5999C38.7467 13.2533 40.7067 9.39992 43.16 6.03992C45.64 2.67992 48.5067 0.999923 51.76 0.999923C52.4267 0.999923 53.04 1.13326 53.6 1.39992C54.16 1.66659 54.44 1.99992 54.44 2.39992C54.44 2.50659 54.3467 2.57326 54.16 2.59992C54 2.62659 53.8533 2.63992 53.72 2.63992C53.6133 2.63992 53.5333 2.63992 53.48 2.63992C50.3867 2.63992 47.8533 3.86659 45.88 6.31992C43.9067 8.77326 42.1333 12.1466 40.56 16.4399C39.68 18.8133 38.96 21.0666 38.4 23.1999C37.84 25.3066 37.3067 27.5599 36.8 29.9599C36.24 32.5733 35.76 34.3999 35.36 35.4399C34.96 36.4799 34.4 36.9999 33.68 36.9999C32 36.9999 30.6133 35.9866 29.52 33.9599C28.4533 31.9066 27.68 29.3466 27.2 26.2799C26.72 23.1866 26.48 20.0133 26.48 16.7599C26.48 15.2133 26.5067 14.0933 26.56 13.3999C24.96 18.2799 23.44 22.4533 22 25.9199C20.56 29.3866 18.64 32.5199 16.24 35.3199C13.84 38.1199 11.0533 39.5199 7.88 39.5199C6.54667 39.5199 5.26667 39.1866 4.04 38.5199C2.84 37.8533 1.86667 36.8799 1.12 35.5999C0.373333 34.3199 0 32.8266 0 31.1199Z" fill="#FAFAFA"/>
<path d="M42.0219 29.5999C42.0219 27.7866 42.3952 25.9999 43.1419 24.2399C43.8885 22.4533 44.9152 20.9999 46.2219 19.8799C47.5552 18.7599 49.0085 18.1999 50.5819 18.1999C51.5152 18.1999 52.3019 18.4533 52.9419 18.9599C53.6085 19.4666 54.1285 20.1466 54.5019 20.9999C54.9552 20.4399 55.5152 20.0133 56.1819 19.7199C56.8485 19.3999 57.4885 19.2399 58.1019 19.2399C58.5285 19.2399 58.8752 19.3199 59.1419 19.4799C59.4352 19.6399 59.5819 19.8666 59.5819 20.1599C59.5819 20.3199 59.5419 20.4799 59.4619 20.6399C59.0352 21.5999 58.6752 22.9466 58.3819 24.6799C58.0885 26.3866 57.9419 27.7199 57.9419 28.6799C57.9419 29.9866 58.0752 30.9066 58.3419 31.4399C58.6085 31.9733 58.9819 32.2399 59.4619 32.2399C60.2885 32.2399 61.1152 31.5466 61.9419 30.1599C62.7952 28.7733 63.9019 26.4533 65.2619 23.1999C65.4219 22.8266 65.6085 22.5466 65.8219 22.3599C66.0352 22.1466 66.2619 22.0399 66.5019 22.0399C66.7419 22.0399 66.9419 22.1599 67.1019 22.3999C67.2885 22.6133 67.3819 22.9066 67.3819 23.2799C67.3819 23.5733 67.3285 23.8799 67.2219 24.1999C65.9952 27.8799 64.5419 30.9333 62.8619 33.3599C61.1819 35.7866 59.4885 36.9999 57.7819 36.9999C56.7152 36.9999 55.7819 36.6799 54.9819 36.0399C54.2085 35.3733 53.6219 34.4799 53.2219 33.3599C51.8352 35.7866 50.1685 36.9999 48.2219 36.9999C46.3819 36.9999 44.8885 36.3333 43.7419 34.9999C42.5952 33.6666 42.0219 31.8666 42.0219 29.5999ZM47.4619 29.4799C47.4619 30.2533 47.5952 30.9066 47.8619 31.4399C48.1552 31.9733 48.5019 32.2399 48.9019 32.2399C49.4619 32.2399 50.0219 31.9333 50.5819 31.3199C51.1685 30.7066 51.6752 29.8533 52.1019 28.7599C52.5285 27.6666 52.8219 26.4399 52.9819 25.0799C53.0085 24.8399 53.0219 24.5066 53.0219 24.0799C53.0219 23.0666 52.8485 22.3333 52.5019 21.8799C52.1552 21.3999 51.7285 21.1599 51.2219 21.1599C50.6085 21.1599 50.0085 21.5999 49.4219 22.4799C48.8619 23.3333 48.3952 24.4133 48.0219 25.7199C47.6485 27.0266 47.4619 28.2799 47.4619 29.4799Z" fill="#FAFAFA"/>
<path d="M71.4291 36.9999C70.1757 36.9999 69.1357 36.4533 68.3091 35.3599C67.5091 34.2399 67.1091 32.9466 67.1091 31.4799C67.1091 30.7066 67.2024 29.9599 67.3891 29.2399C67.6024 28.4933 67.8824 27.6799 68.2291 26.7999C68.5224 26.0266 68.6691 25.5333 68.6691 25.3199C68.6691 24.9733 68.4957 24.6666 68.1491 24.3999C67.8291 24.1333 67.3357 23.8266 66.6691 23.4799C65.6024 22.9199 64.7757 22.3599 64.1891 21.7999C63.6024 21.2399 63.3091 20.4799 63.3091 19.5199C63.3091 18.6933 63.5224 18.0399 63.9491 17.5599C64.3757 17.0533 64.8291 16.7999 65.3091 16.7999C66.1357 16.7999 66.7624 17.1599 67.1891 17.8799C67.6424 18.5999 67.8691 19.6533 67.8691 21.0399C68.2157 21.3333 68.6157 21.5599 69.0691 21.7199C69.5224 21.8799 70.1357 22.0533 70.9091 22.2399C72.1091 22.5333 73.0024 22.8666 73.5891 23.2399C74.1757 23.6133 74.4691 24.2533 74.4691 25.1599C74.4691 25.4533 74.3757 25.8133 74.1891 26.2399C74.0024 26.6399 73.8024 27.0399 73.5891 27.4399C73.1891 28.1333 72.8824 28.7466 72.6691 29.2799C72.4557 29.7866 72.3491 30.3199 72.3491 30.8799C72.3491 31.7866 72.6291 32.2399 73.1891 32.2399C74.0157 32.2399 75.0024 31.4399 76.1491 29.8399C77.2957 28.2133 78.4691 25.9999 79.6691 23.1999C79.8291 22.8266 80.0157 22.5466 80.2291 22.3599C80.4691 22.1466 80.6957 22.0399 80.9091 22.0399C81.1491 22.0399 81.3491 22.1466 81.5091 22.3599C81.6957 22.5733 81.7891 22.8666 81.7891 23.2399C81.7891 23.5599 81.7357 23.8799 81.6291 24.1999C80.4024 27.8533 78.8824 30.9066 77.0691 33.3599C75.2824 35.7866 73.4024 36.9999 71.4291 36.9999Z" fill="#FAFAFA"/>
<path d="M77.8031 29.5999C77.8031 27.7866 78.1765 25.9999 78.9231 24.2399C79.6698 22.4533 80.6965 20.9999 82.0031 19.8799C83.3365 18.7599 84.7898 18.1999 86.3631 18.1999C87.2965 18.1999 88.0831 18.4533 88.7231 18.9599C89.3898 19.4666 89.9098 20.1466 90.2831 20.9999C90.7365 20.4399 91.2965 20.0133 91.9631 19.7199C92.6298 19.3999 93.2698 19.2399 93.8831 19.2399C94.3098 19.2399 94.6565 19.3199 94.9231 19.4799C95.2165 19.6399 95.3631 19.8666 95.3631 20.1599C95.3631 20.3199 95.3231 20.4799 95.2431 20.6399C94.8165 21.5999 94.4565 22.9466 94.1631 24.6799C93.8698 26.3866 93.7231 27.7199 93.7231 28.6799C93.7231 29.9866 93.8565 30.9066 94.1231 31.4399C94.3898 31.9733 94.7631 32.2399 95.2431 32.2399C96.0698 32.2399 96.8965 31.5466 97.7231 30.1599C98.5765 28.7733 99.6831 26.4533 101.043 23.1999C101.203 22.8266 101.39 22.5466 101.603 22.3599C101.816 22.1466 102.043 22.0399 102.283 22.0399C102.523 22.0399 102.723 22.1599 102.883 22.3999C103.07 22.6133 103.163 22.9066 103.163 23.2799C103.163 23.5733 103.11 23.8799 103.003 24.1999C101.776 27.8799 100.323 30.9333 98.6431 33.3599C96.9631 35.7866 95.2698 36.9999 93.5631 36.9999C92.4965 36.9999 91.5631 36.6799 90.7631 36.0399C89.9898 35.3733 89.4031 34.4799 89.0031 33.3599C87.6165 35.7866 85.9498 36.9999 84.0031 36.9999C82.1631 36.9999 80.6698 36.3333 79.5231 34.9999C78.3765 33.6666 77.8031 31.8666 77.8031 29.5999ZM83.2431 29.4799C83.2431 30.2533 83.3765 30.9066 83.6431 31.4399C83.9365 31.9733 84.2831 32.2399 84.6831 32.2399C85.2431 32.2399 85.8031 31.9333 86.3631 31.3199C86.9498 30.7066 87.4565 29.8533 87.8831 28.7599C88.3098 27.6666 88.6031 26.4399 88.7631 25.0799C88.7898 24.8399 88.8031 24.5066 88.8031 24.0799C88.8031 23.0666 88.6298 22.3333 88.2831 21.8799C87.9365 21.3999 87.5098 21.1599 87.0031 21.1599C86.3898 21.1599 85.7898 21.5999 85.2031 22.4799C84.6431 23.3333 84.1765 24.4133 83.8031 25.7199C83.4298 27.0266 83.2431 28.2799 83.2431 29.4799Z" fill="#FAFAFA"/>
<path d="M129.402 0.999923C132.869 0.999923 135.909 1.87992 138.523 3.63992C141.163 5.39992 143.176 7.70659 144.562 10.5599C145.976 13.4133 146.682 16.4133 146.682 19.5599C146.682 22.7866 146.109 25.7199 144.962 28.3599C143.816 30.9999 142.096 33.1066 139.803 34.6799C137.536 36.2533 134.749 37.0399 131.443 37.0399C129.416 37.0399 127.309 36.5866 125.122 35.6799C123.202 38.1599 120.616 39.3999 117.363 39.3999C115.629 39.3999 114.229 38.9733 113.162 38.1199C112.096 37.2666 111.562 36.1466 111.562 34.7599C111.562 33.4533 112.082 32.3599 113.122 31.4799C114.162 30.5999 115.443 30.1599 116.963 30.1599C118.216 30.1599 119.722 30.3733 121.482 30.7999C122.042 29.7599 122.549 28.5733 123.003 27.2399C123.483 25.8799 124.029 24.1599 124.643 22.0799C125.549 19.0933 126.349 16.6799 127.043 14.8399C127.763 12.9999 128.669 11.3333 129.762 9.83992C130.882 8.34659 132.216 7.33326 133.762 6.79992C133.896 6.74659 134.096 6.71992 134.363 6.71992C134.709 6.71992 135.016 6.79992 135.283 6.95992C135.576 7.09326 135.723 7.25326 135.723 7.43992C135.723 7.65326 135.589 7.85326 135.322 8.03992C134.416 8.75992 133.656 9.77326 133.042 11.0799C132.429 12.3599 131.923 13.7733 131.523 15.3199C131.123 16.8399 130.669 18.8266 130.163 21.2799C129.656 23.7333 129.189 25.7866 128.762 27.4399C128.362 29.0666 127.856 30.5866 127.243 31.9999C127.936 32.0799 128.656 32.1199 129.402 32.1199C131.509 32.1199 133.442 31.5733 135.202 30.4799C136.962 29.3866 138.362 27.7199 139.402 25.4799C140.469 23.2133 141.003 20.3999 141.003 17.0399C141.003 14.7466 140.562 12.5466 139.682 10.4399C138.802 8.33326 137.522 6.62659 135.842 5.31992C134.162 3.98659 132.176 3.31992 129.883 3.31992C126.816 3.31992 124.203 3.91992 122.043 5.11992C119.909 6.29326 118.309 7.75992 117.243 9.51992C116.203 11.2799 115.683 13.0133 115.683 14.7199C115.683 17.4399 116.776 18.7999 118.963 18.7999C119.149 18.7999 119.243 18.8799 119.243 19.0399C119.243 19.2799 119.029 19.5466 118.603 19.8399C118.176 20.1066 117.643 20.2399 117.003 20.2399C115.989 20.2399 115.109 19.9866 114.363 19.4799C113.616 18.9466 113.043 18.2799 112.643 17.4799C112.243 16.6533 112.043 15.8266 112.043 14.9999C112.043 12.5466 112.869 10.2399 114.522 8.07992C116.202 5.91992 118.376 4.19992 121.043 2.91992C123.736 1.63992 126.522 0.999923 129.402 0.999923ZM116.603 34.5599C117.776 34.5599 118.829 34.0933 119.762 33.1599C118.642 32.7066 117.642 32.4799 116.762 32.4799C116.309 32.4799 115.896 32.5866 115.522 32.7999C115.176 32.9866 115.003 33.2266 115.003 33.5199C115.003 33.8666 115.149 34.1333 115.442 34.3199C115.762 34.4799 116.149 34.5599 116.603 34.5599Z" fill="#FAFAFA"/>
<path d="M148.272 29.7999C148.272 27.7999 148.712 25.9199 149.592 24.1599C150.472 22.3733 151.632 20.9466 153.072 19.8799C154.539 18.7866 156.085 18.2399 157.712 18.2399C158.139 18.2399 158.499 18.3599 158.792 18.5999C159.085 18.8133 159.232 19.0799 159.232 19.3999C159.232 19.7733 158.992 20.0933 158.512 20.3599C156.859 21.2399 155.645 22.4133 154.872 23.8799C154.099 25.3199 153.712 26.7999 153.712 28.3199C153.712 29.5999 153.899 30.5733 154.272 31.2399C154.645 31.9066 155.139 32.2399 155.752 32.2399C156.445 32.2399 157.085 31.8666 157.672 31.1199C158.259 30.3466 158.685 29.4266 158.952 28.3599C158.259 27.9066 157.725 27.3066 157.352 26.5599C156.979 25.8133 156.792 25.0266 156.792 24.1999C156.792 23.2933 157.005 22.5599 157.432 21.9999C157.859 21.4399 158.379 21.1599 158.992 21.1599C160.032 21.1599 160.805 21.6533 161.312 22.6399C161.819 23.5999 162.072 24.8533 162.072 26.3999C162.685 26.3999 163.352 26.1599 164.072 25.6799C164.819 25.1733 165.445 24.3466 165.952 23.1999C166.325 22.3999 166.725 21.9999 167.152 21.9999C167.392 21.9999 167.592 22.1333 167.752 22.3999C167.912 22.6666 167.992 23.0133 167.992 23.4399C167.992 23.5733 167.965 23.8266 167.912 24.1999C167.779 24.9466 167.432 25.6933 166.872 26.4399C166.312 27.1866 165.592 27.8133 164.712 28.3199C163.832 28.8266 162.872 29.1066 161.832 29.1599C161.432 31.2399 160.632 33.0666 159.432 34.6399C158.232 36.2133 156.712 36.9999 154.872 36.9999C153.672 36.9999 152.565 36.7066 151.552 36.1199C150.539 35.5066 149.739 34.6533 149.152 33.5599C148.565 32.4666 148.272 31.2133 148.272 29.7999Z" fill="#FAFAFA"/>
<path d="M171.414 36.9999C170.241 36.9999 169.107 36.6799 168.014 36.0399C166.947 35.3999 166.081 34.4399 165.414 33.1599C164.747 31.8799 164.414 30.3466 164.414 28.5599C164.387 26.9599 164.774 25.3599 165.574 23.7599C166.401 22.1333 167.507 20.7999 168.894 19.7599C170.307 18.7199 171.841 18.1999 173.494 18.1999C174.774 18.1999 175.761 18.5466 176.454 19.2399C177.174 19.9066 177.534 20.7333 177.534 21.7199C177.534 22.2799 177.361 22.7866 177.014 23.2399C176.694 23.6933 176.374 23.9199 176.054 23.9199C175.601 23.9199 175.374 23.5333 175.374 22.7599C175.374 22.2533 175.254 21.7999 175.014 21.3999C174.801 20.9733 174.507 20.7599 174.134 20.7599C173.281 20.7599 172.534 21.1333 171.894 21.8799C171.254 22.6266 170.761 23.5333 170.414 24.5999C170.094 25.6666 169.934 26.6533 169.934 27.5599C169.934 30.6799 170.921 32.2399 172.894 32.2399C174.387 32.2399 175.854 31.3333 177.294 29.5199C178.761 27.7066 179.921 25.6133 180.774 23.2399C181.067 22.4399 181.454 22.0399 181.934 22.0399C182.174 22.0399 182.387 22.1733 182.574 22.4399C182.761 22.7066 182.854 23.0399 182.854 23.4399C182.854 23.6533 182.814 23.9066 182.734 24.1999C181.614 27.7199 180.081 30.7333 178.134 33.2399C176.187 35.7466 173.947 36.9999 171.414 36.9999Z" fill="#FAFAFA"/>
<path d="M196.418 23.2399C196.711 22.4399 197.098 22.0399 197.578 22.0399C197.818 22.0399 198.031 22.1733 198.218 22.4399C198.404 22.7066 198.498 23.0399 198.498 23.4399C198.498 23.6533 198.458 23.9066 198.378 24.1999C197.684 26.3866 196.751 28.4533 195.578 30.3999C194.431 32.3199 193.058 33.9066 191.458 35.1599C189.858 36.3866 188.124 36.9999 186.258 36.9999C185.084 36.9999 183.951 36.6799 182.858 36.0399C181.791 35.3999 180.924 34.4399 180.258 33.1599C179.591 31.8799 179.258 30.3466 179.258 28.5599C179.231 26.9599 179.591 25.3599 180.338 23.7599C181.084 22.1333 182.111 20.7999 183.418 19.7599C184.724 18.7199 186.178 18.1999 187.778 18.1999C189.218 18.1999 190.351 18.5733 191.178 19.3199C192.004 20.0666 192.418 21.0133 192.418 22.1599C192.418 23.7599 191.684 25.0666 190.218 26.0799C188.751 27.0666 186.938 27.5999 184.778 27.6799V27.8799C184.778 29.2933 184.991 30.3733 185.418 31.1199C185.844 31.8666 186.618 32.2399 187.738 32.2399C188.724 32.2399 189.791 31.7999 190.938 30.9199C192.111 30.0133 193.191 28.8666 194.178 27.4799C195.164 26.0666 195.911 24.6533 196.418 23.2399ZM188.418 20.7599C187.618 20.7599 186.938 21.1866 186.378 22.0399C185.818 22.8666 185.391 23.9066 185.098 25.1599C186.378 25.0799 187.458 24.7866 188.338 24.2799C189.244 23.7733 189.698 23.0666 189.698 22.1599C189.698 21.2266 189.271 20.7599 188.418 20.7599Z" fill="#FAFAFA"/>
<path d="M194.403 19.5199C194.403 18.6933 194.603 18.0399 195.003 17.5599C195.429 17.0533 195.896 16.7999 196.403 16.7999C198.109 16.7999 198.963 18.1999 198.963 20.9999C200.749 22.0133 202.109 22.8399 203.043 23.4799C204.003 24.0933 204.909 24.9599 205.763 26.0799C206.616 27.1733 207.096 28.4666 207.203 29.9599C207.949 28.8399 208.549 27.8266 209.003 26.9199C209.456 26.0133 209.989 24.7733 210.603 23.1999C210.763 22.8266 210.949 22.5466 211.163 22.3599C211.376 22.1466 211.589 22.0399 211.803 22.0399C212.069 22.0399 212.283 22.1599 212.443 22.3999C212.629 22.6133 212.723 22.9066 212.723 23.2799C212.723 23.5999 212.669 23.9066 212.563 24.1999C211.336 27.9066 209.696 30.9733 207.643 33.3999C205.589 35.7999 203.189 36.9999 200.443 36.9999C199.509 36.9999 198.723 36.7999 198.083 36.3999C197.443 35.9733 196.963 35.4533 196.643 34.8399C196.349 34.2266 196.203 33.6266 196.203 33.0399C196.203 31.8133 196.416 31.1999 196.843 31.1999C197.029 31.1999 197.229 31.3333 197.443 31.5999C197.843 32.0266 198.269 32.2399 198.723 32.2399C199.283 32.2399 199.763 32.0399 200.163 31.6399C200.563 31.2133 200.856 30.7066 201.043 30.1199C201.256 29.5333 201.363 28.9999 201.363 28.5199C201.363 26.2799 199.896 24.4799 196.963 23.1199C196.296 22.7733 195.696 22.2933 195.163 21.6799C194.656 21.0666 194.403 20.3466 194.403 19.5199Z" fill="#FAFAFA"/>
<path d="M238.293 23.2399C238.586 22.4399 238.973 22.0399 239.453 22.0399C239.693 22.0399 239.906 22.1733 240.093 22.4399C240.279 22.7066 240.373 23.0399 240.373 23.4399C240.373 23.6533 240.333 23.9066 240.253 24.1999C239.559 26.3866 238.626 28.4533 237.453 30.3999C236.306 32.3199 234.933 33.9066 233.333 35.1599C231.733 36.3866 229.999 36.9999 228.133 36.9999C226.959 36.9999 225.826 36.6799 224.733 36.0399C223.666 35.3999 222.799 34.4399 222.133 33.1599C221.466 31.8799 221.133 30.3466 221.133 28.5599C221.106 26.9599 221.466 25.3599 222.213 23.7599C222.959 22.1333 223.986 20.7999 225.293 19.7599C226.599 18.7199 228.053 18.1999 229.653 18.1999C231.093 18.1999 232.226 18.5733 233.053 19.3199C233.879 20.0666 234.293 21.0133 234.293 22.1599C234.293 23.7599 233.559 25.0666 232.093 26.0799C230.626 27.0666 228.813 27.5999 226.653 27.6799V27.8799C226.653 29.2933 226.866 30.3733 227.293 31.1199C227.719 31.8666 228.493 32.2399 229.613 32.2399C230.599 32.2399 231.666 31.7999 232.813 30.9199C233.986 30.0133 235.066 28.8666 236.053 27.4799C237.039 26.0666 237.786 24.6533 238.293 23.2399ZM230.293 20.7599C229.493 20.7599 228.813 21.1866 228.253 22.0399C227.693 22.8666 227.266 23.9066 226.973 25.1599C228.253 25.0799 229.333 24.7866 230.213 24.2799C231.119 23.7733 231.573 23.0666 231.573 22.1599C231.573 21.2266 231.146 20.7599 230.293 20.7599Z" fill="#FAFAFA"/>
<path d="M282.55 1.71992C282.55 1.34659 282.657 1.15992 282.87 1.15992C283.11 1.15992 283.377 1.39992 283.67 1.87992C283.99 2.35992 284.15 2.86659 284.15 3.39992C284.15 5.18659 283.47 6.49326 282.11 7.31992C280.75 8.14659 278.99 8.55992 276.83 8.55992C275.523 8.55992 274.217 8.34659 272.91 7.91992C271.63 7.49326 269.977 6.85326 267.95 5.99992C265.897 5.11992 264.15 4.45326 262.71 3.99992C261.297 3.54659 259.87 3.31992 258.43 3.31992C256.457 3.31992 254.923 3.78659 253.83 4.71992C252.763 5.65326 252.23 6.87992 252.23 8.39992C252.23 9.73326 252.723 10.7866 253.71 11.5599C254.697 12.3333 256.137 12.7199 258.03 12.7199C258.75 12.7199 259.11 12.9333 259.11 13.3599C259.11 13.7599 258.817 14.1599 258.23 14.5599C257.67 14.9599 257.003 15.1599 256.23 15.1599C254.87 15.1599 253.617 14.8533 252.47 14.2399C251.35 13.6266 250.443 12.7866 249.75 11.7199C249.083 10.6266 248.75 9.42659 248.75 8.11992C248.75 6.73326 249.123 5.49326 249.87 4.39992C250.643 3.30659 251.75 2.45326 253.19 1.83992C254.63 1.22659 256.297 0.919922 258.19 0.919922C259.363 0.919922 260.577 1.05326 261.83 1.31992C263.11 1.55992 264.75 1.94659 266.75 2.47992C269.097 3.09326 271.03 3.55992 272.55 3.87992C274.097 4.17326 275.67 4.31992 277.27 4.31992C278.763 4.31992 280.017 4.09326 281.03 3.63992C282.043 3.15992 282.55 2.51992 282.55 1.71992ZM257.11 39.4799C255.777 39.4799 254.497 39.1333 253.27 38.4399C252.07 37.7466 251.097 36.7599 250.35 35.4799C249.603 34.1733 249.23 32.6666 249.23 30.9599C249.23 29.5999 249.523 28.3866 250.11 27.3199C250.723 26.2266 251.51 25.3733 252.47 24.7599C253.43 24.1466 254.417 23.8399 255.43 23.8399C256.15 23.8399 256.777 24.0266 257.31 24.3999C257.87 24.7466 258.15 25.0933 258.15 25.4399C258.15 25.7599 257.857 25.9199 257.27 25.9199C255.937 25.9199 254.763 26.3066 253.75 27.0799C252.737 27.8533 252.23 28.9066 252.23 30.2399C252.23 31.3599 252.617 32.2666 253.39 32.9599C254.163 33.6533 255.137 33.9999 256.31 33.9999C257.777 33.9999 259.003 33.4666 259.99 32.3999C261.003 31.3333 261.817 30.0133 262.43 28.4399C263.07 26.8666 263.803 24.7333 264.63 22.0399C265.377 19.5599 266.043 17.5599 266.63 16.0399C267.217 14.4933 267.95 13.1066 268.83 11.8799C269.737 10.6266 270.83 9.78659 272.11 9.35992C272.35 9.27992 272.577 9.23992 272.79 9.23992C273.11 9.23992 273.39 9.30659 273.63 9.43992C273.87 9.57326 273.99 9.74659 273.99 9.95992C273.99 10.1199 273.883 10.3333 273.67 10.5999C272.603 11.7733 271.803 13.2933 271.27 15.1599C270.763 16.9999 270.257 19.4799 269.75 22.5999C269.163 26.3066 268.523 29.2666 267.83 31.4799C267.163 33.6933 265.977 35.5733 264.27 37.1199C262.59 38.6933 260.203 39.4799 257.11 39.4799Z" fill="#FAFAFA"/>
<path d="M274.131 29.7999C274.131 27.7999 274.571 25.9199 275.451 24.1599C276.331 22.3733 277.491 20.9466 278.931 19.8799C280.398 18.7866 281.945 18.2399 283.571 18.2399C283.998 18.2399 284.358 18.3599 284.651 18.5999C284.945 18.8133 285.091 19.0799 285.091 19.3999C285.091 19.7733 284.851 20.0933 284.371 20.3599C282.718 21.2399 281.505 22.4133 280.731 23.8799C279.958 25.3199 279.571 26.7999 279.571 28.3199C279.571 29.5999 279.758 30.5733 280.131 31.2399C280.505 31.9066 280.998 32.2399 281.611 32.2399C282.305 32.2399 282.945 31.8666 283.531 31.1199C284.118 30.3466 284.545 29.4266 284.811 28.3599C284.118 27.9066 283.585 27.3066 283.211 26.5599C282.838 25.8133 282.651 25.0266 282.651 24.1999C282.651 23.2933 282.865 22.5599 283.291 21.9999C283.718 21.4399 284.238 21.1599 284.851 21.1599C285.891 21.1599 286.665 21.6533 287.171 22.6399C287.678 23.5999 287.931 24.8533 287.931 26.3999C288.545 26.3999 289.211 26.1599 289.931 25.6799C290.678 25.1733 291.305 24.3466 291.811 23.1999C292.185 22.3999 292.585 21.9999 293.011 21.9999C293.251 21.9999 293.451 22.1333 293.611 22.3999C293.771 22.6666 293.851 23.0133 293.851 23.4399C293.851 23.5733 293.825 23.8266 293.771 24.1999C293.638 24.9466 293.291 25.6933 292.731 26.4399C292.171 27.1866 291.451 27.8133 290.571 28.3199C289.691 28.8266 288.731 29.1066 287.691 29.1599C287.291 31.2399 286.491 33.0666 285.291 34.6399C284.091 36.2133 282.571 36.9999 280.731 36.9999C279.531 36.9999 278.425 36.7066 277.411 36.1199C276.398 35.5066 275.598 34.6533 275.011 33.5599C274.425 32.4666 274.131 31.2133 274.131 29.7999Z" fill="#FAFAFA"/>
<path d="M297.913 36.9999C296.66 36.9999 295.62 36.4533 294.793 35.3599C293.993 34.2399 293.593 32.9466 293.593 31.4799C293.593 30.7066 293.687 29.9599 293.873 29.2399C294.087 28.4933 294.367 27.6799 294.713 26.7999C295.007 26.0266 295.153 25.5333 295.153 25.3199C295.153 24.9733 294.98 24.6666 294.633 24.3999C294.313 24.1333 293.82 23.8266 293.153 23.4799C292.087 22.9199 291.26 22.3599 290.673 21.7999C290.087 21.2399 289.793 20.4799 289.793 19.5199C289.793 18.6933 290.007 18.0399 290.433 17.5599C290.86 17.0533 291.313 16.7999 291.793 16.7999C292.62 16.7999 293.247 17.1599 293.673 17.8799C294.127 18.5999 294.353 19.6533 294.353 21.0399C294.7 21.3333 295.1 21.5599 295.553 21.7199C296.007 21.8799 296.62 22.0533 297.393 22.2399C298.593 22.5333 299.487 22.8666 300.073 23.2399C300.66 23.6133 300.953 24.2533 300.953 25.1599C300.953 25.4533 300.86 25.8133 300.673 26.2399C300.487 26.6399 300.287 27.0399 300.073 27.4399C299.673 28.1333 299.367 28.7466 299.153 29.2799C298.94 29.7866 298.833 30.3199 298.833 30.8799C298.833 31.7866 299.113 32.2399 299.673 32.2399C300.5 32.2399 301.487 31.4399 302.633 29.8399C303.78 28.2133 304.953 25.9999 306.153 23.1999C306.313 22.8266 306.5 22.5466 306.713 22.3599C306.953 22.1466 307.18 22.0399 307.393 22.0399C307.633 22.0399 307.833 22.1466 307.993 22.3599C308.18 22.5733 308.273 22.8666 308.273 23.2399C308.273 23.5599 308.22 23.8799 308.113 24.1999C306.887 27.8533 305.367 30.9066 303.553 33.3599C301.767 35.7866 299.887 36.9999 297.913 36.9999Z" fill="#FAFAFA"/>
<path d="M331.927 8.39992C334.007 8.39992 335.661 8.81326 336.888 9.63992C338.141 10.4399 338.768 11.6666 338.768 13.3199C338.768 14.0399 338.621 14.6399 338.328 15.1199C338.034 15.5999 337.754 15.8399 337.487 15.8399C337.221 15.8399 337.087 15.6266 337.087 15.1999C337.087 14.4266 336.581 13.7999 335.568 13.3199C334.554 12.8399 333.128 12.5999 331.288 12.5999C330.008 12.5999 328.541 12.7866 326.888 13.1599C325.234 13.5333 323.034 14.0933 320.288 14.8399C317.008 15.7466 314.367 16.4133 312.367 16.8399C311.781 18.8933 311.381 20.7599 311.168 22.4399C310.981 24.1199 310.888 25.8666 310.888 27.6799C310.888 29.3333 311.047 30.5066 311.367 31.1999C311.687 31.8933 312.074 32.2399 312.527 32.2399C313.247 32.2399 314.007 31.5733 314.807 30.2399C315.607 28.9066 316.688 26.5599 318.048 23.1999C318.208 22.8266 318.394 22.5466 318.608 22.3599C318.821 22.1466 319.048 22.0399 319.288 22.0399C319.528 22.0399 319.728 22.1599 319.888 22.3999C320.074 22.6133 320.168 22.9066 320.168 23.2799C320.168 23.5733 320.114 23.8799 320.008 24.1999C318.994 27.2399 318.154 29.5733 317.487 31.1999C316.821 32.8266 315.994 34.1999 315.008 35.3199C314.048 36.4399 312.887 36.9999 311.527 36.9999C309.767 36.9999 308.341 36.1999 307.247 34.5999C306.181 32.9733 305.647 30.7599 305.647 27.9599C305.647 26.5999 305.781 25.0133 306.047 23.1999C306.314 21.3866 306.728 19.5333 307.288 17.6399C306.381 17.6933 305.714 17.7199 305.288 17.7199C304.594 17.7199 304.047 17.5866 303.647 17.3199C303.221 17.0266 303.008 16.7199 303.008 16.3999C303.008 15.8133 303.367 15.5199 304.087 15.5199C305.234 15.5199 306.554 15.4266 308.047 15.2399C308.447 14.1466 308.927 13.0133 309.487 11.8399C309.861 11.0666 310.447 10.4533 311.247 9.99992C312.074 9.51992 312.848 9.27992 313.568 9.27992C313.941 9.27992 314.234 9.35992 314.448 9.51992C314.661 9.65326 314.767 9.85326 314.767 10.1199C314.767 10.2799 314.727 10.4666 314.647 10.6799C314.194 11.7466 313.741 12.8799 313.288 14.0799C315.181 13.5466 317.821 12.6266 321.207 11.3199C323.954 10.3066 326.088 9.57326 327.608 9.11992C329.154 8.63992 330.594 8.39992 331.927 8.39992Z" fill="#FAFAFA"/>
<path d="M316.163 29.5999C316.163 27.7866 316.536 25.9999 317.283 24.2399C318.029 22.4533 319.056 20.9999 320.362 19.8799C321.696 18.7599 323.149 18.1999 324.723 18.1999C325.656 18.1999 326.442 18.4533 327.082 18.9599C327.749 19.4666 328.269 20.1466 328.642 20.9999C329.096 20.4399 329.656 20.0133 330.323 19.7199C330.989 19.3999 331.629 19.2399 332.242 19.2399C332.669 19.2399 333.016 19.3199 333.283 19.4799C333.576 19.6399 333.723 19.8666 333.723 20.1599C333.723 20.3199 333.683 20.4799 333.603 20.6399C333.176 21.5999 332.816 22.9466 332.522 24.6799C332.229 26.3866 332.082 27.7199 332.082 28.6799C332.082 29.9866 332.216 30.9066 332.483 31.4399C332.749 31.9733 333.123 32.2399 333.603 32.2399C334.429 32.2399 335.256 31.5466 336.082 30.1599C336.936 28.7733 338.042 26.4533 339.402 23.1999C339.562 22.8266 339.749 22.5466 339.962 22.3599C340.176 22.1466 340.403 22.0399 340.643 22.0399C340.883 22.0399 341.082 22.1599 341.242 22.3999C341.429 22.6133 341.522 22.9066 341.522 23.2799C341.522 23.5733 341.469 23.8799 341.362 24.1999C340.136 27.8799 338.683 30.9333 337.003 33.3599C335.323 35.7866 333.629 36.9999 331.922 36.9999C330.856 36.9999 329.922 36.6799 329.122 36.0399C328.349 35.3733 327.762 34.4799 327.362 33.3599C325.976 35.7866 324.309 36.9999 322.362 36.9999C320.522 36.9999 319.029 36.3333 317.883 34.9999C316.736 33.6666 316.163 31.8666 316.163 29.5999ZM321.603 29.4799C321.603 30.2533 321.736 30.9066 322.003 31.4399C322.296 31.9733 322.643 32.2399 323.043 32.2399C323.603 32.2399 324.163 31.9333 324.723 31.3199C325.309 30.7066 325.816 29.8533 326.242 28.7599C326.669 27.6666 326.962 26.4399 327.122 25.0799C327.149 24.8399 327.163 24.5066 327.163 24.0799C327.163 23.0666 326.989 22.3333 326.642 21.8799C326.296 21.3999 325.869 21.1599 325.362 21.1599C324.749 21.1599 324.149 21.5999 323.562 22.4799C323.003 23.3333 322.536 24.4133 322.163 25.7199C321.789 27.0266 321.603 28.2799 321.603 29.4799Z" fill="#FAFAFA"/>
<path d="M337.45 19.5199C337.45 18.6933 337.65 18.0399 338.05 17.5599C338.476 17.0533 338.943 16.7999 339.45 16.7999C341.156 16.7999 342.01 18.1999 342.01 20.9999C343.796 22.0133 345.156 22.8399 346.09 23.4799C347.05 24.0933 347.956 24.9599 348.81 26.0799C349.663 27.1733 350.143 28.4666 350.25 29.9599C350.996 28.8399 351.596 27.8266 352.05 26.9199C352.503 26.0133 353.036 24.7733 353.65 23.1999C353.81 22.8266 353.996 22.5466 354.21 22.3599C354.423 22.1466 354.636 22.0399 354.85 22.0399C355.116 22.0399 355.33 22.1599 355.49 22.3999C355.676 22.6133 355.77 22.9066 355.77 23.2799C355.77 23.5999 355.716 23.9066 355.61 24.1999C354.383 27.9066 352.743 30.9733 350.69 33.3999C348.636 35.7999 346.236 36.9999 343.49 36.9999C342.556 36.9999 341.77 36.7999 341.13 36.3999C340.49 35.9733 340.01 35.4533 339.69 34.8399C339.396 34.2266 339.25 33.6266 339.25 33.0399C339.25 31.8133 339.463 31.1999 339.89 31.1999C340.076 31.1999 340.276 31.3333 340.49 31.5999C340.89 32.0266 341.316 32.2399 341.77 32.2399C342.33 32.2399 342.81 32.0399 343.21 31.6399C343.61 31.2133 343.903 30.7066 344.09 30.1199C344.303 29.5333 344.41 28.9999 344.41 28.5199C344.41 26.2799 342.943 24.4799 340.01 23.1199C339.343 22.7733 338.743 22.2933 338.21 21.6799C337.703 21.0666 337.45 20.3466 337.45 19.5199Z" fill="#FAFAFA"/>
</svg>
