<svg width="356" height="40" viewBox="0 0 356 40" fill="none" xmlns="http://www.w3.org/2000/svg">
<path d="M0 31.12C0 29.76 0.293333 28.5333 0.88 27.44C1.49333 26.32 2.28 25.4533 3.24 24.84C4.2 24.2 5.18667 23.88 6.2 23.88C6.92 23.88 7.54667 24.0667 8.08 24.44C8.64 24.7867 8.92 25.1333 8.92 25.48C8.92 25.8 8.62667 25.96 8.04 25.96C6.70667 25.96 5.53333 26.3333 4.52 27.08C3.53333 27.8267 3.04 28.84 3.04 30.12C3.04 31.3467 3.41333 32.3067 4.16 33C4.93333 33.6667 5.90667 34 7.08 34C11.2133 34 14.8933 31.16 18.12 25.48C21.3467 19.8 24.2933 12.4267 26.96 3.35998C24.8 3.70665 22.8133 4.39998 21 5.43998C19.2133 6.47998 17.7867 7.82665 16.72 9.47998C15.6533 11.1333 15.12 13 15.12 15.08C15.12 15.5867 14.96 15.84 14.64 15.84C14.3733 15.84 14.0533 15.6533 13.68 15.28C13.3333 14.88 13.0267 14.3333 12.76 13.64C12.52 12.9467 12.4 12.1867 12.4 11.36C12.4 9.78665 13.2667 8.19998 15 6.59998C16.76 4.97332 18.9467 3.63998 21.56 2.59999C24.1733 1.53332 26.6933 0.999984 29.12 0.999984C29.9467 0.999984 30.56 1.17332 30.96 1.51998C31.36 1.83998 31.56 2.37332 31.56 3.11998C31.56 10.8533 31.8 16.9467 32.28 21.4C32.7867 25.8267 33.3733 28.5733 34.04 29.64C34.7333 25.9333 35.8133 21.92 37.28 17.6C38.7467 13.2533 40.7067 9.39999 43.16 6.03998C45.64 2.67998 48.5067 0.999984 51.76 0.999984C52.4267 0.999984 53.04 1.13332 53.6 1.39998C54.16 1.66665 54.44 1.99998 54.44 2.39998C54.44 2.50665 54.3467 2.57332 54.16 2.59999C54 2.62665 53.8533 2.63998 53.72 2.63998C53.6133 2.63998 53.5333 2.63998 53.48 2.63998C50.3867 2.63998 47.8533 3.86665 45.88 6.31998C43.9067 8.77332 42.1333 12.1467 40.56 16.44C39.68 18.8133 38.96 21.0667 38.4 23.2C37.84 25.3067 37.3067 27.56 36.8 29.96C36.24 32.5733 35.76 34.4 35.36 35.44C34.96 36.48 34.4 37 33.68 37C32 37 30.6133 35.9867 29.52 33.96C28.4533 31.9067 27.68 29.3467 27.2 26.28C26.72 23.1867 26.48 20.0133 26.48 16.76C26.48 15.2133 26.5067 14.0933 26.56 13.4C24.96 18.28 23.44 22.4533 22 25.92C20.56 29.3867 18.64 32.52 16.24 35.32C13.84 38.12 11.0533 39.52 7.88 39.52C6.54667 39.52 5.26667 39.1867 4.04 38.52C2.84 37.8533 1.86667 36.88 1.12 35.6C0.373333 34.32 0 32.8267 0 31.12Z" fill="#76111A"/>
<path d="M42.0219 29.6C42.0219 27.7867 42.3952 26 43.1419 24.24C43.8885 22.4533 44.9152 21 46.2219 19.88C47.5552 18.76 49.0085 18.2 50.5819 18.2C51.5152 18.2 52.3019 18.4533 52.9419 18.96C53.6085 19.4667 54.1285 20.1467 54.5019 21C54.9552 20.44 55.5152 20.0133 56.1819 19.72C56.8485 19.4 57.4885 19.24 58.1019 19.24C58.5285 19.24 58.8752 19.32 59.1419 19.48C59.4352 19.64 59.5819 19.8667 59.5819 20.16C59.5819 20.32 59.5419 20.48 59.4619 20.64C59.0352 21.6 58.6752 22.9467 58.3819 24.68C58.0885 26.3867 57.9419 27.72 57.9419 28.68C57.9419 29.9867 58.0752 30.9067 58.3419 31.44C58.6085 31.9733 58.9819 32.24 59.4619 32.24C60.2885 32.24 61.1152 31.5467 61.9419 30.16C62.7952 28.7733 63.9019 26.4533 65.2619 23.2C65.4219 22.8267 65.6085 22.5467 65.8219 22.36C66.0352 22.1467 66.2619 22.04 66.5019 22.04C66.7419 22.04 66.9419 22.16 67.1019 22.4C67.2885 22.6133 67.3819 22.9067 67.3819 23.28C67.3819 23.5733 67.3285 23.88 67.2219 24.2C65.9952 27.88 64.5419 30.9333 62.8619 33.36C61.1819 35.7867 59.4885 37 57.7819 37C56.7152 37 55.7819 36.68 54.9819 36.04C54.2085 35.3733 53.6219 34.48 53.2219 33.36C51.8352 35.7867 50.1685 37 48.2219 37C46.3819 37 44.8885 36.3333 43.7419 35C42.5952 33.6667 42.0219 31.8667 42.0219 29.6ZM47.4619 29.48C47.4619 30.2533 47.5952 30.9067 47.8619 31.44C48.1552 31.9733 48.5019 32.24 48.9019 32.24C49.4619 32.24 50.0219 31.9333 50.5819 31.32C51.1685 30.7067 51.6752 29.8533 52.1019 28.76C52.5285 27.6667 52.8219 26.44 52.9819 25.08C53.0085 24.84 53.0219 24.5067 53.0219 24.08C53.0219 23.0667 52.8485 22.3333 52.5019 21.88C52.1552 21.4 51.7285 21.16 51.2219 21.16C50.6085 21.16 50.0085 21.6 49.4219 22.48C48.8619 23.3333 48.3952 24.4133 48.0219 25.72C47.6485 27.0267 47.4619 28.28 47.4619 29.48Z" fill="#76111A"/>
<path d="M71.4291 37C70.1757 37 69.1357 36.4533 68.3091 35.36C67.5091 34.24 67.1091 32.9467 67.1091 31.48C67.1091 30.7067 67.2024 29.96 67.3891 29.24C67.6024 28.4933 67.8824 27.68 68.2291 26.8C68.5224 26.0267 68.6691 25.5333 68.6691 25.32C68.6691 24.9733 68.4957 24.6667 68.1491 24.4C67.8291 24.1333 67.3357 23.8267 66.6691 23.48C65.6024 22.92 64.7757 22.36 64.1891 21.8C63.6024 21.24 63.3091 20.48 63.3091 19.52C63.3091 18.6933 63.5224 18.04 63.9491 17.56C64.3757 17.0533 64.8291 16.8 65.3091 16.8C66.1357 16.8 66.7624 17.16 67.1891 17.88C67.6424 18.6 67.8691 19.6533 67.8691 21.04C68.2157 21.3333 68.6157 21.56 69.0691 21.72C69.5224 21.88 70.1357 22.0533 70.9091 22.24C72.1091 22.5333 73.0024 22.8667 73.5891 23.24C74.1757 23.6133 74.4691 24.2533 74.4691 25.16C74.4691 25.4533 74.3757 25.8133 74.1891 26.24C74.0024 26.64 73.8024 27.04 73.5891 27.44C73.1891 28.1333 72.8824 28.7467 72.6691 29.28C72.4557 29.7867 72.3491 30.32 72.3491 30.88C72.3491 31.7867 72.6291 32.24 73.1891 32.24C74.0157 32.24 75.0024 31.44 76.1491 29.84C77.2957 28.2133 78.4691 26 79.6691 23.2C79.8291 22.8267 80.0157 22.5467 80.2291 22.36C80.4691 22.1467 80.6957 22.04 80.9091 22.04C81.1491 22.04 81.3491 22.1467 81.5091 22.36C81.6957 22.5733 81.7891 22.8667 81.7891 23.24C81.7891 23.56 81.7357 23.88 81.6291 24.2C80.4024 27.8533 78.8824 30.9067 77.0691 33.36C75.2824 35.7867 73.4024 37 71.4291 37Z" fill="#76111A"/>
<path d="M77.8031 29.6C77.8031 27.7867 78.1765 26 78.9231 24.24C79.6698 22.4533 80.6965 21 82.0031 19.88C83.3365 18.76 84.7898 18.2 86.3631 18.2C87.2965 18.2 88.0831 18.4533 88.7231 18.96C89.3898 19.4667 89.9098 20.1467 90.2831 21C90.7365 20.44 91.2965 20.0133 91.9631 19.72C92.6298 19.4 93.2698 19.24 93.8831 19.24C94.3098 19.24 94.6565 19.32 94.9231 19.48C95.2165 19.64 95.3631 19.8667 95.3631 20.16C95.3631 20.32 95.3231 20.48 95.2431 20.64C94.8165 21.6 94.4565 22.9467 94.1631 24.68C93.8698 26.3867 93.7231 27.72 93.7231 28.68C93.7231 29.9867 93.8565 30.9067 94.1231 31.44C94.3898 31.9733 94.7631 32.24 95.2431 32.24C96.0698 32.24 96.8965 31.5467 97.7231 30.16C98.5765 28.7733 99.6831 26.4533 101.043 23.2C101.203 22.8267 101.39 22.5467 101.603 22.36C101.816 22.1467 102.043 22.04 102.283 22.04C102.523 22.04 102.723 22.16 102.883 22.4C103.07 22.6133 103.163 22.9067 103.163 23.28C103.163 23.5733 103.11 23.88 103.003 24.2C101.776 27.88 100.323 30.9333 98.6431 33.36C96.9631 35.7867 95.2698 37 93.5631 37C92.4965 37 91.5631 36.68 90.7631 36.04C89.9898 35.3733 89.4031 34.48 89.0031 33.36C87.6165 35.7867 85.9498 37 84.0031 37C82.1631 37 80.6698 36.3333 79.5231 35C78.3765 33.6667 77.8031 31.8667 77.8031 29.6ZM83.2431 29.48C83.2431 30.2533 83.3765 30.9067 83.6431 31.44C83.9365 31.9733 84.2831 32.24 84.6831 32.24C85.2431 32.24 85.8031 31.9333 86.3631 31.32C86.9498 30.7067 87.4565 29.8533 87.8831 28.76C88.3098 27.6667 88.6031 26.44 88.7631 25.08C88.7898 24.84 88.8031 24.5067 88.8031 24.08C88.8031 23.0667 88.6298 22.3333 88.2831 21.88C87.9365 21.4 87.5098 21.16 87.0031 21.16C86.3898 21.16 85.7898 21.6 85.2031 22.48C84.6431 23.3333 84.1765 24.4133 83.8031 25.72C83.4298 27.0267 83.2431 28.28 83.2431 29.48Z" fill="#76111A"/>
<path d="M129.402 0.999984C132.869 0.999984 135.909 1.87998 138.523 3.63998C141.163 5.39998 143.176 7.70665 144.562 10.56C145.976 13.4133 146.682 16.4133 146.682 19.56C146.682 22.7867 146.109 25.72 144.962 28.36C143.816 31 142.096 33.1067 139.803 34.68C137.536 36.2533 134.749 37.04 131.443 37.04C129.416 37.04 127.309 36.5867 125.122 35.68C123.202 38.16 120.616 39.4 117.363 39.4C115.629 39.4 114.229 38.9733 113.162 38.12C112.096 37.2667 111.562 36.1467 111.562 34.76C111.562 33.4533 112.082 32.36 113.122 31.48C114.162 30.6 115.443 30.16 116.963 30.16C118.216 30.16 119.722 30.3733 121.482 30.8C122.042 29.76 122.549 28.5733 123.003 27.24C123.483 25.88 124.029 24.16 124.643 22.08C125.549 19.0933 126.349 16.68 127.043 14.84C127.763 13 128.669 11.3333 129.762 9.83998C130.882 8.34665 132.216 7.33332 133.762 6.79998C133.896 6.74665 134.096 6.71998 134.363 6.71998C134.709 6.71998 135.016 6.79998 135.283 6.95998C135.576 7.09332 135.723 7.25332 135.723 7.43998C135.723 7.65332 135.589 7.85332 135.322 8.03998C134.416 8.75998 133.656 9.77332 133.042 11.08C132.429 12.36 131.923 13.7733 131.523 15.32C131.123 16.84 130.669 18.8267 130.163 21.28C129.656 23.7333 129.189 25.7867 128.762 27.44C128.362 29.0667 127.856 30.5867 127.243 32C127.936 32.08 128.656 32.12 129.402 32.12C131.509 32.12 133.442 31.5733 135.202 30.48C136.962 29.3867 138.362 27.72 139.402 25.48C140.469 23.2133 141.003 20.4 141.003 17.04C141.003 14.7467 140.562 12.5467 139.682 10.44C138.802 8.33332 137.522 6.62665 135.842 5.31998C134.162 3.98665 132.176 3.31998 129.883 3.31998C126.816 3.31998 124.203 3.91998 122.043 5.11998C119.909 6.29332 118.309 7.75998 117.243 9.51998C116.203 11.28 115.683 13.0133 115.683 14.72C115.683 17.44 116.776 18.8 118.963 18.8C119.149 18.8 119.243 18.88 119.243 19.04C119.243 19.28 119.029 19.5467 118.603 19.84C118.176 20.1067 117.643 20.24 117.003 20.24C115.989 20.24 115.109 19.9867 114.363 19.48C113.616 18.9467 113.043 18.28 112.643 17.48C112.243 16.6533 112.043 15.8267 112.043 15C112.043 12.5467 112.869 10.24 114.522 8.07998C116.202 5.91998 118.376 4.19998 121.043 2.91998C123.736 1.63998 126.522 0.999984 129.402 0.999984ZM116.603 34.56C117.776 34.56 118.829 34.0933 119.762 33.16C118.642 32.7067 117.642 32.48 116.762 32.48C116.309 32.48 115.896 32.5867 115.522 32.8C115.176 32.9867 115.003 33.2267 115.003 33.52C115.003 33.8667 115.149 34.1333 115.442 34.32C115.762 34.48 116.149 34.56 116.603 34.56Z" fill="#76111A"/>
<path d="M148.272 29.8C148.272 27.8 148.712 25.92 149.592 24.16C150.472 22.3733 151.632 20.9467 153.072 19.88C154.539 18.7867 156.085 18.24 157.712 18.24C158.139 18.24 158.499 18.36 158.792 18.6C159.085 18.8133 159.232 19.08 159.232 19.4C159.232 19.7733 158.992 20.0933 158.512 20.36C156.859 21.24 155.645 22.4133 154.872 23.88C154.099 25.32 153.712 26.8 153.712 28.32C153.712 29.6 153.899 30.5733 154.272 31.24C154.645 31.9067 155.139 32.24 155.752 32.24C156.445 32.24 157.085 31.8667 157.672 31.12C158.259 30.3467 158.685 29.4267 158.952 28.36C158.259 27.9067 157.725 27.3067 157.352 26.56C156.979 25.8133 156.792 25.0267 156.792 24.2C156.792 23.2933 157.005 22.56 157.432 22C157.859 21.44 158.379 21.16 158.992 21.16C160.032 21.16 160.805 21.6533 161.312 22.64C161.819 23.6 162.072 24.8533 162.072 26.4C162.685 26.4 163.352 26.16 164.072 25.68C164.819 25.1733 165.445 24.3467 165.952 23.2C166.325 22.4 166.725 22 167.152 22C167.392 22 167.592 22.1333 167.752 22.4C167.912 22.6667 167.992 23.0133 167.992 23.44C167.992 23.5733 167.965 23.8267 167.912 24.2C167.779 24.9467 167.432 25.6933 166.872 26.44C166.312 27.1867 165.592 27.8133 164.712 28.32C163.832 28.8267 162.872 29.1067 161.832 29.16C161.432 31.24 160.632 33.0667 159.432 34.64C158.232 36.2133 156.712 37 154.872 37C153.672 37 152.565 36.7067 151.552 36.12C150.539 35.5067 149.739 34.6533 149.152 33.56C148.565 32.4667 148.272 31.2133 148.272 29.8Z" fill="#76111A"/>
<path d="M171.414 37C170.241 37 169.107 36.68 168.014 36.04C166.947 35.4 166.081 34.44 165.414 33.16C164.747 31.88 164.414 30.3467 164.414 28.56C164.387 26.96 164.774 25.36 165.574 23.76C166.401 22.1333 167.507 20.8 168.894 19.76C170.307 18.72 171.841 18.2 173.494 18.2C174.774 18.2 175.761 18.5467 176.454 19.24C177.174 19.9067 177.534 20.7333 177.534 21.72C177.534 22.28 177.361 22.7867 177.014 23.24C176.694 23.6933 176.374 23.92 176.054 23.92C175.601 23.92 175.374 23.5333 175.374 22.76C175.374 22.2533 175.254 21.8 175.014 21.4C174.801 20.9733 174.507 20.76 174.134 20.76C173.281 20.76 172.534 21.1333 171.894 21.88C171.254 22.6267 170.761 23.5333 170.414 24.6C170.094 25.6667 169.934 26.6533 169.934 27.56C169.934 30.68 170.921 32.24 172.894 32.24C174.387 32.24 175.854 31.3333 177.294 29.52C178.761 27.7067 179.921 25.6133 180.774 23.24C181.067 22.44 181.454 22.04 181.934 22.04C182.174 22.04 182.387 22.1733 182.574 22.44C182.761 22.7067 182.854 23.04 182.854 23.44C182.854 23.6533 182.814 23.9067 182.734 24.2C181.614 27.72 180.081 30.7333 178.134 33.24C176.187 35.7467 173.947 37 171.414 37Z" fill="#76111A"/>
<path d="M196.418 23.24C196.711 22.44 197.098 22.04 197.578 22.04C197.818 22.04 198.031 22.1733 198.218 22.44C198.404 22.7067 198.498 23.04 198.498 23.44C198.498 23.6533 198.458 23.9067 198.378 24.2C197.684 26.3867 196.751 28.4533 195.578 30.4C194.431 32.32 193.058 33.9067 191.458 35.16C189.858 36.3867 188.124 37 186.258 37C185.084 37 183.951 36.68 182.858 36.04C181.791 35.4 180.924 34.44 180.258 33.16C179.591 31.88 179.258 30.3467 179.258 28.56C179.231 26.96 179.591 25.36 180.338 23.76C181.084 22.1333 182.111 20.8 183.418 19.76C184.724 18.72 186.178 18.2 187.778 18.2C189.218 18.2 190.351 18.5733 191.178 19.32C192.004 20.0667 192.418 21.0133 192.418 22.16C192.418 23.76 191.684 25.0667 190.218 26.08C188.751 27.0667 186.938 27.6 184.778 27.68V27.88C184.778 29.2933 184.991 30.3733 185.418 31.12C185.844 31.8667 186.618 32.24 187.738 32.24C188.724 32.24 189.791 31.8 190.938 30.92C192.111 30.0133 193.191 28.8667 194.178 27.48C195.164 26.0667 195.911 24.6533 196.418 23.24ZM188.418 20.76C187.618 20.76 186.938 21.1867 186.378 22.04C185.818 22.8667 185.391 23.9067 185.098 25.16C186.378 25.08 187.458 24.7867 188.338 24.28C189.244 23.7733 189.698 23.0667 189.698 22.16C189.698 21.2267 189.271 20.76 188.418 20.76Z" fill="#76111A"/>
<path d="M194.403 19.52C194.403 18.6933 194.603 18.04 195.003 17.56C195.429 17.0533 195.896 16.8 196.403 16.8C198.109 16.8 198.963 18.2 198.963 21C200.749 22.0133 202.109 22.84 203.043 23.48C204.003 24.0933 204.909 24.96 205.763 26.08C206.616 27.1733 207.096 28.4667 207.203 29.96C207.949 28.84 208.549 27.8267 209.003 26.92C209.456 26.0133 209.989 24.7733 210.603 23.2C210.763 22.8267 210.949 22.5467 211.163 22.36C211.376 22.1467 211.589 22.04 211.803 22.04C212.069 22.04 212.283 22.16 212.443 22.4C212.629 22.6133 212.723 22.9067 212.723 23.28C212.723 23.6 212.669 23.9067 212.563 24.2C211.336 27.9067 209.696 30.9733 207.643 33.4C205.589 35.8 203.189 37 200.443 37C199.509 37 198.723 36.8 198.083 36.4C197.443 35.9733 196.963 35.4533 196.643 34.84C196.349 34.2267 196.203 33.6267 196.203 33.04C196.203 31.8133 196.416 31.2 196.843 31.2C197.029 31.2 197.229 31.3333 197.443 31.6C197.843 32.0267 198.269 32.24 198.723 32.24C199.283 32.24 199.763 32.04 200.163 31.64C200.563 31.2133 200.856 30.7067 201.043 30.12C201.256 29.5333 201.363 29 201.363 28.52C201.363 26.28 199.896 24.48 196.963 23.12C196.296 22.7733 195.696 22.2933 195.163 21.68C194.656 21.0667 194.403 20.3467 194.403 19.52Z" fill="#76111A"/>
<path d="M238.293 23.24C238.586 22.44 238.973 22.04 239.453 22.04C239.693 22.04 239.906 22.1733 240.093 22.44C240.279 22.7067 240.373 23.04 240.373 23.44C240.373 23.6533 240.333 23.9067 240.253 24.2C239.559 26.3867 238.626 28.4533 237.453 30.4C236.306 32.32 234.933 33.9067 233.333 35.16C231.733 36.3867 229.999 37 228.133 37C226.959 37 225.826 36.68 224.733 36.04C223.666 35.4 222.799 34.44 222.133 33.16C221.466 31.88 221.133 30.3467 221.133 28.56C221.106 26.96 221.466 25.36 222.213 23.76C222.959 22.1333 223.986 20.8 225.293 19.76C226.599 18.72 228.053 18.2 229.653 18.2C231.093 18.2 232.226 18.5733 233.053 19.32C233.879 20.0667 234.293 21.0133 234.293 22.16C234.293 23.76 233.559 25.0667 232.093 26.08C230.626 27.0667 228.813 27.6 226.653 27.68V27.88C226.653 29.2933 226.866 30.3733 227.293 31.12C227.719 31.8667 228.493 32.24 229.613 32.24C230.599 32.24 231.666 31.8 232.813 30.92C233.986 30.0133 235.066 28.8667 236.053 27.48C237.039 26.0667 237.786 24.6533 238.293 23.24ZM230.293 20.76C229.493 20.76 228.813 21.1867 228.253 22.04C227.693 22.8667 227.266 23.9067 226.973 25.16C228.253 25.08 229.333 24.7867 230.213 24.28C231.119 23.7733 231.573 23.0667 231.573 22.16C231.573 21.2267 231.146 20.76 230.293 20.76Z" fill="#76111A"/>
<path d="M282.55 1.71998C282.55 1.34665 282.657 1.15998 282.87 1.15998C283.11 1.15998 283.377 1.39998 283.67 1.87998C283.99 2.35999 284.15 2.86665 284.15 3.39998C284.15 5.18665 283.47 6.49332 282.11 7.31998C280.75 8.14665 278.99 8.55998 276.83 8.55998C275.523 8.55998 274.217 8.34665 272.91 7.91998C271.63 7.49332 269.977 6.85332 267.95 5.99998C265.897 5.11998 264.15 4.45332 262.71 3.99998C261.297 3.54665 259.87 3.31998 258.43 3.31998C256.457 3.31998 254.923 3.78665 253.83 4.71998C252.763 5.65332 252.23 6.87998 252.23 8.39998C252.23 9.73332 252.723 10.7867 253.71 11.56C254.697 12.3333 256.137 12.72 258.03 12.72C258.75 12.72 259.11 12.9333 259.11 13.36C259.11 13.76 258.817 14.16 258.23 14.56C257.67 14.96 257.003 15.16 256.23 15.16C254.87 15.16 253.617 14.8533 252.47 14.24C251.35 13.6267 250.443 12.7867 249.75 11.72C249.083 10.6267 248.75 9.42665 248.75 8.11998C248.75 6.73332 249.123 5.49332 249.87 4.39998C250.643 3.30665 251.75 2.45332 253.19 1.83998C254.63 1.22665 256.297 0.919983 258.19 0.919983C259.363 0.919983 260.577 1.05332 261.83 1.31998C263.11 1.55998 264.75 1.94665 266.75 2.47998C269.097 3.09332 271.03 3.55998 272.55 3.87998C274.097 4.17332 275.67 4.31998 277.27 4.31998C278.763 4.31998 280.017 4.09332 281.03 3.63998C282.043 3.15998 282.55 2.51998 282.55 1.71998ZM257.11 39.48C255.777 39.48 254.497 39.1333 253.27 38.44C252.07 37.7467 251.097 36.76 250.35 35.48C249.603 34.1733 249.23 32.6667 249.23 30.96C249.23 29.6 249.523 28.3867 250.11 27.32C250.723 26.2267 251.51 25.3733 252.47 24.76C253.43 24.1467 254.417 23.84 255.43 23.84C256.15 23.84 256.777 24.0267 257.31 24.4C257.87 24.7467 258.15 25.0933 258.15 25.44C258.15 25.76 257.857 25.92 257.27 25.92C255.937 25.92 254.763 26.3067 253.75 27.08C252.737 27.8533 252.23 28.9067 252.23 30.24C252.23 31.36 252.617 32.2667 253.39 32.96C254.163 33.6533 255.137 34 256.31 34C257.777 34 259.003 33.4667 259.99 32.4C261.003 31.3333 261.817 30.0133 262.43 28.44C263.07 26.8667 263.803 24.7333 264.63 22.04C265.377 19.56 266.043 17.56 266.63 16.04C267.217 14.4933 267.95 13.1067 268.83 11.88C269.737 10.6267 270.83 9.78665 272.11 9.35998C272.35 9.27998 272.577 9.23999 272.79 9.23999C273.11 9.23999 273.39 9.30665 273.63 9.43999C273.87 9.57332 273.99 9.74665 273.99 9.95998C273.99 10.12 273.883 10.3333 273.67 10.6C272.603 11.7733 271.803 13.2933 271.27 15.16C270.763 17 270.257 19.48 269.75 22.6C269.163 26.3067 268.523 29.2667 267.83 31.48C267.163 33.6933 265.977 35.5733 264.27 37.12C262.59 38.6933 260.203 39.48 257.11 39.48Z" fill="#76111A"/>
<path d="M274.131 29.8C274.131 27.8 274.571 25.92 275.451 24.16C276.331 22.3733 277.491 20.9467 278.931 19.88C280.398 18.7867 281.945 18.24 283.571 18.24C283.998 18.24 284.358 18.36 284.651 18.6C284.945 18.8133 285.091 19.08 285.091 19.4C285.091 19.7733 284.851 20.0933 284.371 20.36C282.718 21.24 281.505 22.4133 280.731 23.88C279.958 25.32 279.571 26.8 279.571 28.32C279.571 29.6 279.758 30.5733 280.131 31.24C280.505 31.9067 280.998 32.24 281.611 32.24C282.305 32.24 282.945 31.8667 283.531 31.12C284.118 30.3467 284.545 29.4267 284.811 28.36C284.118 27.9067 283.585 27.3067 283.211 26.56C282.838 25.8133 282.651 25.0267 282.651 24.2C282.651 23.2933 282.865 22.56 283.291 22C283.718 21.44 284.238 21.16 284.851 21.16C285.891 21.16 286.665 21.6533 287.171 22.64C287.678 23.6 287.931 24.8533 287.931 26.4C288.545 26.4 289.211 26.16 289.931 25.68C290.678 25.1733 291.305 24.3467 291.811 23.2C292.185 22.4 292.585 22 293.011 22C293.251 22 293.451 22.1333 293.611 22.4C293.771 22.6667 293.851 23.0133 293.851 23.44C293.851 23.5733 293.825 23.8267 293.771 24.2C293.638 24.9467 293.291 25.6933 292.731 26.44C292.171 27.1867 291.451 27.8133 290.571 28.32C289.691 28.8267 288.731 29.1067 287.691 29.16C287.291 31.24 286.491 33.0667 285.291 34.64C284.091 36.2133 282.571 37 280.731 37C279.531 37 278.425 36.7067 277.411 36.12C276.398 35.5067 275.598 34.6533 275.011 33.56C274.425 32.4667 274.131 31.2133 274.131 29.8Z" fill="#76111A"/>
<path d="M297.913 37C296.66 37 295.62 36.4533 294.793 35.36C293.993 34.24 293.593 32.9467 293.593 31.48C293.593 30.7067 293.687 29.96 293.873 29.24C294.087 28.4933 294.367 27.68 294.713 26.8C295.007 26.0267 295.153 25.5333 295.153 25.32C295.153 24.9733 294.98 24.6667 294.633 24.4C294.313 24.1333 293.82 23.8267 293.153 23.48C292.087 22.92 291.26 22.36 290.673 21.8C290.087 21.24 289.793 20.48 289.793 19.52C289.793 18.6933 290.007 18.04 290.433 17.56C290.86 17.0533 291.313 16.8 291.793 16.8C292.62 16.8 293.247 17.16 293.673 17.88C294.127 18.6 294.353 19.6533 294.353 21.04C294.7 21.3333 295.1 21.56 295.553 21.72C296.007 21.88 296.62 22.0533 297.393 22.24C298.593 22.5333 299.487 22.8667 300.073 23.24C300.66 23.6133 300.953 24.2533 300.953 25.16C300.953 25.4533 300.86 25.8133 300.673 26.24C300.487 26.64 300.287 27.04 300.073 27.44C299.673 28.1333 299.367 28.7467 299.153 29.28C298.94 29.7867 298.833 30.32 298.833 30.88C298.833 31.7867 299.113 32.24 299.673 32.24C300.5 32.24 301.487 31.44 302.633 29.84C303.78 28.2133 304.953 26 306.153 23.2C306.313 22.8267 306.5 22.5467 306.713 22.36C306.953 22.1467 307.18 22.04 307.393 22.04C307.633 22.04 307.833 22.1467 307.993 22.36C308.18 22.5733 308.273 22.8667 308.273 23.24C308.273 23.56 308.22 23.88 308.113 24.2C306.887 27.8533 305.367 30.9067 303.553 33.36C301.767 35.7867 299.887 37 297.913 37Z" fill="#76111A"/>
<path d="M331.927 8.39998C334.007 8.39998 335.661 8.81332 336.888 9.63999C338.141 10.44 338.768 11.6667 338.768 13.32C338.768 14.04 338.621 14.64 338.328 15.12C338.034 15.6 337.754 15.84 337.487 15.84C337.221 15.84 337.087 15.6267 337.087 15.2C337.087 14.4267 336.581 13.8 335.568 13.32C334.554 12.84 333.128 12.6 331.288 12.6C330.008 12.6 328.541 12.7867 326.888 13.16C325.234 13.5333 323.034 14.0933 320.288 14.84C317.008 15.7467 314.367 16.4133 312.367 16.84C311.781 18.8933 311.381 20.76 311.168 22.44C310.981 24.12 310.888 25.8667 310.888 27.68C310.888 29.3333 311.047 30.5067 311.367 31.2C311.687 31.8933 312.074 32.24 312.527 32.24C313.247 32.24 314.007 31.5733 314.807 30.24C315.607 28.9067 316.688 26.56 318.048 23.2C318.208 22.8267 318.394 22.5467 318.608 22.36C318.821 22.1467 319.048 22.04 319.288 22.04C319.528 22.04 319.728 22.16 319.888 22.4C320.074 22.6133 320.168 22.9067 320.168 23.28C320.168 23.5733 320.114 23.88 320.008 24.2C318.994 27.24 318.154 29.5733 317.487 31.2C316.821 32.8267 315.994 34.2 315.008 35.32C314.048 36.44 312.887 37 311.527 37C309.767 37 308.341 36.2 307.247 34.6C306.181 32.9733 305.647 30.76 305.647 27.96C305.647 26.6 305.781 25.0133 306.047 23.2C306.314 21.3867 306.728 19.5333 307.288 17.64C306.381 17.6933 305.714 17.72 305.288 17.72C304.594 17.72 304.047 17.5867 303.647 17.32C303.221 17.0267 303.008 16.72 303.008 16.4C303.008 15.8133 303.367 15.52 304.087 15.52C305.234 15.52 306.554 15.4267 308.047 15.24C308.447 14.1467 308.927 13.0133 309.487 11.84C309.861 11.0667 310.447 10.4533 311.247 9.99998C312.074 9.51998 312.848 9.27999 313.568 9.27999C313.941 9.27999 314.234 9.35998 314.448 9.51998C314.661 9.65332 314.767 9.85332 314.767 10.12C314.767 10.28 314.727 10.4667 314.647 10.68C314.194 11.7467 313.741 12.88 313.288 14.08C315.181 13.5467 317.821 12.6267 321.207 11.32C323.954 10.3067 326.088 9.57332 327.608 9.11998C329.154 8.63998 330.594 8.39998 331.927 8.39998Z" fill="#76111A"/>
<path d="M316.163 29.6C316.163 27.7867 316.536 26 317.283 24.24C318.029 22.4533 319.056 21 320.362 19.88C321.696 18.76 323.149 18.2 324.723 18.2C325.656 18.2 326.442 18.4533 327.082 18.96C327.749 19.4667 328.269 20.1467 328.642 21C329.096 20.44 329.656 20.0133 330.323 19.72C330.989 19.4 331.629 19.24 332.242 19.24C332.669 19.24 333.016 19.32 333.283 19.48C333.576 19.64 333.723 19.8667 333.723 20.16C333.723 20.32 333.683 20.48 333.603 20.64C333.176 21.6 332.816 22.9467 332.522 24.68C332.229 26.3867 332.082 27.72 332.082 28.68C332.082 29.9867 332.216 30.9067 332.483 31.44C332.749 31.9733 333.123 32.24 333.603 32.24C334.429 32.24 335.256 31.5467 336.082 30.16C336.936 28.7733 338.042 26.4533 339.402 23.2C339.562 22.8267 339.749 22.5467 339.962 22.36C340.176 22.1467 340.403 22.04 340.643 22.04C340.883 22.04 341.082 22.16 341.242 22.4C341.429 22.6133 341.522 22.9067 341.522 23.28C341.522 23.5733 341.469 23.88 341.362 24.2C340.136 27.88 338.683 30.9333 337.003 33.36C335.323 35.7867 333.629 37 331.922 37C330.856 37 329.922 36.68 329.122 36.04C328.349 35.3733 327.762 34.48 327.362 33.36C325.976 35.7867 324.309 37 322.362 37C320.522 37 319.029 36.3333 317.883 35C316.736 33.6667 316.163 31.8667 316.163 29.6ZM321.603 29.48C321.603 30.2533 321.736 30.9067 322.003 31.44C322.296 31.9733 322.643 32.24 323.043 32.24C323.603 32.24 324.163 31.9333 324.723 31.32C325.309 30.7067 325.816 29.8533 326.242 28.76C326.669 27.6667 326.962 26.44 327.122 25.08C327.149 24.84 327.163 24.5067 327.163 24.08C327.163 23.0667 326.989 22.3333 326.642 21.88C326.296 21.4 325.869 21.16 325.362 21.16C324.749 21.16 324.149 21.6 323.562 22.48C323.003 23.3333 322.536 24.4133 322.163 25.72C321.789 27.0267 321.603 28.28 321.603 29.48Z" fill="#76111A"/>
<path d="M337.45 19.52C337.45 18.6933 337.65 18.04 338.05 17.56C338.476 17.0533 338.943 16.8 339.45 16.8C341.156 16.8 342.01 18.2 342.01 21C343.796 22.0133 345.156 22.84 346.09 23.48C347.05 24.0933 347.956 24.96 348.81 26.08C349.663 27.1733 350.143 28.4667 350.25 29.96C350.996 28.84 351.596 27.8267 352.05 26.92C352.503 26.0133 353.036 24.7733 353.65 23.2C353.81 22.8267 353.996 22.5467 354.21 22.36C354.423 22.1467 354.636 22.04 354.85 22.04C355.116 22.04 355.33 22.16 355.49 22.4C355.676 22.6133 355.77 22.9067 355.77 23.28C355.77 23.6 355.716 23.9067 355.61 24.2C354.383 27.9067 352.743 30.9733 350.69 33.4C348.636 35.8 346.236 37 343.49 37C342.556 37 341.77 36.8 341.13 36.4C340.49 35.9733 340.01 35.4533 339.69 34.84C339.396 34.2267 339.25 33.6267 339.25 33.04C339.25 31.8133 339.463 31.2 339.89 31.2C340.076 31.2 340.276 31.3333 340.49 31.6C340.89 32.0267 341.316 32.24 341.77 32.24C342.33 32.24 342.81 32.04 343.21 31.64C343.61 31.2133 343.903 30.7067 344.09 30.12C344.303 29.5333 344.41 29 344.41 28.52C344.41 26.28 342.943 24.48 340.01 23.12C339.343 22.7733 338.743 22.2933 338.21 21.68C337.703 21.0667 337.45 20.3467 337.45 19.52Z" fill="#76111A"/>
</svg>
