<svg width="200" height="22" viewBox="0 0 200 22" fill="none" xmlns="http://www.w3.org/2000/svg">
<path d="M0 17.2124C0 16.4373 0.164901 15.7382 0.494702 15.115C0.839494 14.4767 1.28173 13.9827 1.8214 13.6332C2.36108 13.2684 2.91574 13.086 3.4854 13.086C3.89016 13.086 4.24244 13.1924 4.54226 13.4052C4.85707 13.6028 5.01448 13.8003 5.01448 13.9979C5.01448 14.1803 4.84958 14.2715 4.51978 14.2715C3.77023 14.2715 3.11063 14.4843 2.54097 14.9098C1.9863 15.3354 1.70897 15.913 1.70897 16.6425C1.70897 17.3416 1.91884 17.8888 2.33859 18.2839C2.77333 18.6639 3.3205 18.8539 3.9801 18.8539C6.3037 18.8539 8.37246 17.2352 10.1864 13.9979C12.0003 10.7606 13.6568 6.5582 15.1559 1.39067C13.9416 1.58826 12.8248 1.98342 11.8054 2.57617C10.801 3.16891 9.99898 3.93644 9.39934 4.87876C8.7997 5.82107 8.49988 6.88498 8.49988 8.07047C8.49988 8.35924 8.40994 8.50363 8.23004 8.50363C8.08013 8.50363 7.90024 8.39724 7.69037 8.18446C7.49549 7.95648 7.32309 7.64491 7.17318 7.24974C7.03826 6.85458 6.9708 6.42142 6.9708 5.95026C6.9708 5.05354 7.45801 4.14922 8.43242 3.23731C9.42183 2.31019 10.6511 1.55026 12.1202 0.957514C13.5893 0.349569 15.006 0.0455966 16.3701 0.0455966C16.8349 0.0455966 17.1797 0.144388 17.4045 0.34197C17.6294 0.524353 17.7418 0.828325 17.7418 1.25389C17.7418 5.66149 17.8767 9.13437 18.1466 11.6725C18.4314 14.1955 18.7612 15.761 19.136 16.3689C19.5257 14.2563 20.1329 11.9689 20.9574 9.50674C21.7819 7.02936 22.8837 4.83316 24.2629 2.91814C25.657 1.00311 27.2686 0.0455966 29.0975 0.0455966C29.4722 0.0455966 29.817 0.12159 30.1319 0.273576C30.4467 0.425562 30.6041 0.615544 30.6041 0.843523C30.6041 0.904318 30.5516 0.942315 30.4467 0.957514C30.3567 0.972713 30.2743 0.980312 30.1993 0.980312C30.1393 0.980312 30.0944 0.980312 30.0644 0.980312C28.3254 0.980312 26.9013 1.67945 25.792 3.07772C24.6826 4.47599 23.6857 6.39862 22.8013 8.8456C22.3066 10.1983 21.9018 11.4826 21.587 12.6984C21.2722 13.8991 20.9724 15.1834 20.6875 16.5513C20.3727 18.0408 20.1029 19.0819 19.878 19.6746C19.6532 20.2674 19.3384 20.5637 18.9336 20.5637C17.9892 20.5637 17.2096 19.9862 16.595 18.8311C15.9954 17.6608 15.5606 16.2017 15.2908 14.4539C15.021 12.6908 14.886 10.8822 14.886 9.02798C14.886 8.14646 14.901 7.50812 14.931 7.11295C14.0315 9.8943 13.1771 12.2729 12.3676 14.2487C11.558 16.2245 10.4787 18.0104 9.1295 19.6062C7.78032 21.2021 6.21376 22 4.42983 22C3.68028 22 2.96072 21.81 2.27113 21.4301C1.59654 21.0501 1.04937 20.4953 0.629621 19.7658C0.209874 19.0363 0 18.1851 0 17.2124Z" fill="#E6E6E6"/>
<path d="M23.6231 16.3461C23.6231 15.3126 23.833 14.2943 24.2527 13.2912C24.6724 12.2729 25.2496 11.4446 25.9842 10.8062C26.7337 10.1679 27.5507 9.84871 28.4352 9.84871C28.9599 9.84871 29.4021 9.99309 29.7619 10.2819C30.1367 10.5706 30.429 10.9582 30.6389 11.4446C30.8937 11.1254 31.2085 10.8822 31.5833 10.715C31.9581 10.5326 32.3178 10.4415 32.6626 10.4415C32.9025 10.4415 33.0974 10.487 33.2473 10.5782C33.4122 10.6694 33.4946 10.7986 33.4946 10.9658C33.4946 11.057 33.4721 11.1482 33.4272 11.2394C33.1873 11.7865 32.9849 12.5541 32.82 13.542C32.6551 14.5147 32.5727 15.2746 32.5727 15.8218C32.5727 16.5665 32.6476 17.0908 32.7976 17.3948C32.9475 17.6988 33.1573 17.8508 33.4272 17.8508C33.8919 17.8508 34.3566 17.4556 34.8213 16.6653C35.301 15.875 35.9232 14.5527 36.6877 12.6984C36.7777 12.4857 36.8826 12.3261 37.0025 12.2197C37.1224 12.0981 37.2499 12.0373 37.3848 12.0373C37.5197 12.0373 37.6321 12.1057 37.7221 12.2425C37.827 12.3641 37.8795 12.5313 37.8795 12.744C37.8795 12.9112 37.8495 13.086 37.7895 13.2684C37.1 15.3658 36.283 17.106 35.3385 18.4891C34.3941 19.8722 33.4422 20.5637 32.4827 20.5637C31.8831 20.5637 31.3584 20.3813 30.9087 20.0166C30.474 19.6366 30.1442 19.1275 29.9193 18.4891C29.1398 19.8722 28.2028 20.5637 27.1085 20.5637C26.0741 20.5637 25.2346 20.1838 24.59 19.4238C23.9454 18.6639 23.6231 17.638 23.6231 16.3461ZM26.6812 16.2777C26.6812 16.7185 26.7562 17.0908 26.9061 17.3948C27.071 17.6988 27.2659 17.8508 27.4907 17.8508C27.8056 17.8508 28.1204 17.676 28.4352 17.3264C28.765 16.9769 29.0498 16.4905 29.2897 15.8674C29.5295 15.2442 29.6944 14.5451 29.7844 13.7699C29.7994 13.6332 29.8069 13.4432 29.8069 13.2C29.8069 12.6225 29.7094 12.2045 29.5145 11.9461C29.3196 11.6725 29.0798 11.5358 28.795 11.5358C28.4502 11.5358 28.1129 11.7865 27.7831 12.2881C27.4683 12.7744 27.2059 13.39 26.996 14.1347C26.7862 14.8794 26.6812 15.5938 26.6812 16.2777Z" fill="#E6E6E6"/>
<path d="M40.1547 20.5637C39.4501 20.5637 38.8654 20.2522 38.4007 19.629C37.951 18.9907 37.7261 18.2535 37.7261 17.4176C37.7261 16.9769 37.7786 16.5513 37.8835 16.1409C38.0035 15.7154 38.1609 15.2518 38.3557 14.7503C38.5206 14.3095 38.6031 14.0283 38.6031 13.9067C38.6031 13.7092 38.5057 13.5344 38.3108 13.3824C38.1309 13.2304 37.8535 13.0556 37.4788 12.858C36.8791 12.5389 36.4144 12.2197 36.0846 11.9005C35.7548 11.5813 35.5899 11.1482 35.5899 10.601C35.5899 10.1299 35.7098 9.75751 35.9497 9.48394C36.1895 9.19517 36.4444 9.05078 36.7142 9.05078C37.179 9.05078 37.5312 9.25596 37.7711 9.66632C38.0259 10.0767 38.1534 10.677 38.1534 11.4674C38.3483 11.6345 38.5731 11.7637 38.828 11.8549C39.0828 11.9461 39.4276 12.0449 39.8623 12.1513C40.5369 12.3185 41.0391 12.5085 41.3689 12.7212C41.6987 12.934 41.8636 13.2988 41.8636 13.8155C41.8636 13.9827 41.8112 14.1879 41.7062 14.4311C41.6013 14.6591 41.4889 14.887 41.3689 15.115C41.1441 15.5102 40.9717 15.8598 40.8517 16.1637C40.7318 16.4525 40.6718 16.7565 40.6718 17.0756C40.6718 17.5924 40.8293 17.8508 41.1441 17.8508C41.6088 17.8508 42.1635 17.3948 42.8081 16.4829C43.4527 15.5558 44.1123 14.2943 44.7869 12.6984C44.8768 12.4857 44.9818 12.3261 45.1017 12.2197C45.2366 12.0981 45.364 12.0373 45.484 12.0373C45.6189 12.0373 45.7313 12.0981 45.8213 12.2197C45.9262 12.3413 45.9787 12.5085 45.9787 12.7212C45.9787 12.9036 45.9487 13.086 45.8887 13.2684C45.1991 15.3506 44.3446 17.0908 43.3253 18.4891C42.3209 19.8722 41.264 20.5637 40.1547 20.5637Z" fill="#E6E6E6"/>
<path d="M43.7379 16.3461C43.7379 15.3126 43.9478 14.2943 44.3675 13.2912C44.7873 12.2729 45.3644 11.4446 46.099 10.8062C46.8485 10.1679 47.6656 9.84871 48.55 9.84871C49.0747 9.84871 49.5169 9.99309 49.8767 10.2819C50.2515 10.5706 50.5438 10.9582 50.7537 11.4446C51.0085 11.1254 51.3233 10.8822 51.6981 10.715C52.0729 10.5326 52.4327 10.4415 52.7775 10.4415C53.0173 10.4415 53.2122 10.487 53.3621 10.5782C53.527 10.6694 53.6095 10.7986 53.6095 10.9658C53.6095 11.057 53.587 11.1482 53.542 11.2394C53.3022 11.7865 53.0998 12.5541 52.9349 13.542C52.77 14.5147 52.6875 15.2746 52.6875 15.8218C52.6875 16.5665 52.7625 17.0908 52.9124 17.3948C53.0623 17.6988 53.2722 17.8508 53.542 17.8508C54.0067 17.8508 54.4714 17.4556 54.9362 16.6653C55.4159 15.875 56.038 14.5527 56.8025 12.6984C56.8925 12.4857 56.9974 12.3261 57.1174 12.2197C57.2373 12.0981 57.3647 12.0373 57.4996 12.0373C57.6345 12.0373 57.747 12.1057 57.8369 12.2425C57.9419 12.3641 57.9943 12.5313 57.9943 12.744C57.9943 12.9112 57.9643 13.086 57.9044 13.2684C57.2148 15.3658 56.3978 17.106 55.4534 18.4891C54.5089 19.8722 53.557 20.5637 52.5976 20.5637C51.9979 20.5637 51.4733 20.3813 51.0235 20.0166C50.5888 19.6366 50.259 19.1275 50.0341 18.4891C49.2546 19.8722 48.3177 20.5637 47.2233 20.5637C46.1889 20.5637 45.3494 20.1838 44.7048 19.4238C44.0602 18.6639 43.7379 17.638 43.7379 16.3461ZM46.7961 16.2777C46.7961 16.7185 46.871 17.0908 47.0209 17.3948C47.1858 17.6988 47.3807 17.8508 47.6056 17.8508C47.9204 17.8508 48.2352 17.676 48.55 17.3264C48.8798 16.9769 49.1646 16.4905 49.4045 15.8674C49.6444 15.2442 49.8093 14.5451 49.8992 13.7699C49.9142 13.6332 49.9217 13.4432 49.9217 13.2C49.9217 12.6225 49.8242 12.2045 49.6294 11.9461C49.4345 11.6725 49.1946 11.5358 48.9098 11.5358C48.565 11.5358 48.2277 11.7865 47.8979 12.2881C47.5831 12.7744 47.3208 13.39 47.1109 14.1347C46.901 14.8794 46.7961 15.5938 46.7961 16.2777Z" fill="#E6E6E6"/>
<path d="M72.7451 0.0455966C74.6939 0.0455966 76.4029 0.547151 77.872 1.55026C79.3561 2.55337 80.4879 3.86805 81.2675 5.4943C82.062 7.12055 82.4592 8.8304 82.4592 10.6238C82.4592 12.4629 82.1369 14.1347 81.4923 15.6394C80.8477 17.144 79.8808 18.3447 78.5916 19.2415C77.3173 20.1382 75.7508 20.5865 73.8919 20.5865C72.7526 20.5865 71.5683 20.3282 70.339 19.8114C69.2597 21.2249 67.8056 21.9316 65.9767 21.9316C65.0023 21.9316 64.2152 21.6884 63.6156 21.2021C63.016 20.7157 62.7161 20.0774 62.7161 19.287C62.7161 18.5423 63.0085 17.9192 63.5931 17.4176C64.1777 16.9161 64.8973 16.6653 65.7518 16.6653C66.4564 16.6653 67.3034 16.7869 68.2928 17.0301C68.6076 16.4373 68.8924 15.761 69.1473 15.001C69.4171 14.2259 69.7244 13.2456 70.0692 12.0601C70.5789 10.3579 71.0286 8.98238 71.4184 7.93368C71.8231 6.88498 72.3328 5.93506 72.9475 5.08394C73.5771 4.23282 74.3266 3.65527 75.1961 3.3513C75.2711 3.3209 75.3835 3.3057 75.5334 3.3057C75.7283 3.3057 75.9007 3.3513 76.0506 3.44249C76.2155 3.51848 76.298 3.60967 76.298 3.71606C76.298 3.83765 76.223 3.95164 76.0731 4.05803C75.5634 4.46839 75.1362 5.04594 74.7914 5.79068C74.4466 6.52021 74.1617 7.32573 73.9369 8.20725C73.712 9.07358 73.4572 10.2059 73.1723 11.6041C72.8875 13.0024 72.6252 14.1727 72.3853 15.115C72.1604 16.0421 71.8756 16.9085 71.5308 17.714C71.9206 17.7596 72.3253 17.7824 72.7451 17.7824C73.9294 17.7824 75.0162 17.4708 76.0056 16.8477C76.995 16.2245 77.7821 15.2746 78.3667 13.9979C78.9663 12.706 79.2662 11.1026 79.2662 9.18757C79.2662 7.88048 79.0188 6.6266 78.5241 5.42591C78.0294 4.22522 77.3098 3.2525 76.3654 2.50777C75.421 1.74784 74.3042 1.36788 73.0149 1.36788C71.291 1.36788 69.8219 1.70984 68.6076 2.39378C67.4083 3.06252 66.5089 3.89845 65.9092 4.90156C65.3246 5.90466 65.0322 6.89257 65.0322 7.86529C65.0322 9.41554 65.6469 10.1907 66.8761 10.1907C66.9811 10.1907 67.0335 10.2363 67.0335 10.3275C67.0335 10.4642 66.9136 10.6162 66.6738 10.7834C66.4339 10.9354 66.1341 11.0114 65.7743 11.0114C65.2046 11.0114 64.7099 10.867 64.2902 10.5782C63.8704 10.2743 63.5481 9.8943 63.3233 9.43834C63.0984 8.96718 62.986 8.49603 62.986 8.02487C62.986 6.6266 63.4507 5.31192 64.3801 4.08083C65.3246 2.84974 66.5463 1.86943 68.0454 1.1399C69.5595 0.410363 71.1261 0.0455966 72.7451 0.0455966ZM65.5494 19.1731C66.209 19.1731 66.8012 18.9071 67.3259 18.3751C66.6962 18.1168 66.1341 17.9876 65.6394 17.9876C65.3845 17.9876 65.1522 18.0484 64.9423 18.17C64.7474 18.2763 64.65 18.4131 64.65 18.5803C64.65 18.7779 64.7324 18.9299 64.8973 19.0363C65.0772 19.1275 65.2946 19.1731 65.5494 19.1731Z" fill="#E6E6E6"/>
<path d="M83.3527 16.4601C83.3527 15.3202 83.6001 14.2487 84.0948 13.2456C84.5895 12.2273 85.2416 11.4142 86.0511 10.8062C86.8756 10.1831 87.7451 9.8715 88.6595 9.8715C88.8994 9.8715 89.1018 9.9399 89.2667 10.0767C89.4316 10.1983 89.514 10.3503 89.514 10.5326C89.514 10.7454 89.3791 10.9278 89.1093 11.0798C88.1798 11.5813 87.4977 12.2501 87.063 13.086C86.6283 13.9067 86.4109 14.7503 86.4109 15.6166C86.4109 16.3461 86.5158 16.9009 86.7257 17.2808C86.9356 17.6608 87.2129 17.8508 87.5577 17.8508C87.9475 17.8508 88.3072 17.638 88.637 17.2124C88.9668 16.7717 89.2067 16.2473 89.3566 15.6394C88.9668 15.381 88.667 15.039 88.4572 14.6135C88.2473 14.1879 88.1423 13.7396 88.1423 13.2684C88.1423 12.7516 88.2623 12.3337 88.5021 12.0145C88.742 11.6953 89.0343 11.5358 89.3791 11.5358C89.9637 11.5358 90.3985 11.8169 90.6833 12.3793C90.9681 12.9264 91.1105 13.6408 91.1105 14.5223C91.4553 14.5223 91.8301 14.3855 92.2349 14.1119C92.6546 13.8231 93.0069 13.352 93.2917 12.6984C93.5016 12.2425 93.7265 12.0145 93.9663 12.0145C94.1013 12.0145 94.2137 12.0905 94.3036 12.2425C94.3936 12.3945 94.4386 12.5921 94.4386 12.8352C94.4386 12.9112 94.4236 13.0556 94.3936 13.2684C94.3186 13.694 94.1237 14.1195 93.8089 14.5451C93.4941 14.9706 93.0894 15.3278 92.5947 15.6166C92.1 15.9054 91.5603 16.0649 90.9756 16.0953C90.7508 17.2808 90.301 18.3219 89.6265 19.2187C88.9519 20.1154 88.0974 20.5637 87.063 20.5637C86.3884 20.5637 85.7663 20.3965 85.1966 20.0622C84.627 19.7126 84.1772 19.2263 83.8474 18.6031C83.5176 17.98 83.3527 17.2656 83.3527 16.4601Z" fill="#E6E6E6"/>
<path d="M96.3624 20.5637C95.7028 20.5637 95.0656 20.3813 94.451 20.0166C93.8514 19.6518 93.3642 19.1047 92.9894 18.3751C92.6146 17.6456 92.4272 16.7717 92.4272 15.7534C92.4123 14.8415 92.6296 13.9295 93.0793 13.0176C93.5441 12.0905 94.1662 11.3306 94.9457 10.7378C95.7402 10.1451 96.6022 9.84871 97.5317 9.84871C98.2512 9.84871 98.8059 10.0463 99.1957 10.4415C99.6004 10.8214 99.8028 11.2926 99.8028 11.8549C99.8028 12.1741 99.7054 12.4629 99.5105 12.7212C99.3306 12.9796 99.1507 13.1088 98.9708 13.1088C98.716 13.1088 98.5885 12.8884 98.5885 12.4477C98.5885 12.1589 98.5211 11.9005 98.3862 11.6725C98.2662 11.4294 98.1013 11.3078 97.8915 11.3078C97.4117 11.3078 96.992 11.5206 96.6322 11.9461C96.2724 12.3717 95.9951 12.8884 95.8002 13.4964C95.6203 14.1043 95.5304 14.6667 95.5304 15.1834C95.5304 16.9617 96.085 17.8508 97.1944 17.8508C98.0339 17.8508 98.8584 17.334 99.6679 16.3005C100.492 15.267 101.144 14.0739 101.624 12.7212C101.789 12.2653 102.006 12.0373 102.276 12.0373C102.411 12.0373 102.531 12.1133 102.636 12.2653C102.741 12.4173 102.793 12.6073 102.793 12.8352C102.793 12.9568 102.771 13.1012 102.726 13.2684C102.096 15.2746 101.234 16.9921 100.14 18.4207C99.0458 19.8494 97.7865 20.5637 96.3624 20.5637Z" fill="#E6E6E6"/>
<path d="M110.419 12.7212C110.583 12.2653 110.801 12.0373 111.071 12.0373C111.206 12.0373 111.325 12.1133 111.43 12.2653C111.535 12.4173 111.588 12.6073 111.588 12.8352C111.588 12.9568 111.565 13.1012 111.52 13.2684C111.131 14.5147 110.606 15.6926 109.946 16.8021C109.302 17.8964 108.53 18.8007 107.63 19.515C106.731 20.2142 105.756 20.5637 104.707 20.5637C104.047 20.5637 103.41 20.3813 102.796 20.0166C102.196 19.6518 101.709 19.1047 101.334 18.3751C100.959 17.6456 100.772 16.7717 100.772 15.7534C100.757 14.8415 100.959 13.9295 101.379 13.0176C101.799 12.0905 102.376 11.3306 103.11 10.7378C103.845 10.1451 104.662 9.84871 105.561 9.84871C106.371 9.84871 107.008 10.0615 107.473 10.487C107.938 10.9126 108.17 11.4522 108.17 12.1057C108.17 13.0176 107.758 13.7624 106.933 14.3399C106.109 14.9022 105.089 15.2062 103.875 15.2518V15.3658C103.875 16.1713 103.995 16.7869 104.235 17.2124C104.475 17.638 104.909 17.8508 105.539 17.8508C106.094 17.8508 106.693 17.6 107.338 17.0984C107.997 16.5817 108.605 15.9282 109.159 15.1378C109.714 14.3323 110.134 13.5268 110.419 12.7212ZM105.921 11.3078C105.472 11.3078 105.089 11.551 104.774 12.0373C104.46 12.5085 104.22 13.1012 104.055 13.8155C104.774 13.7699 105.382 13.6028 105.876 13.314C106.386 13.0252 106.641 12.6225 106.641 12.1057C106.641 11.5737 106.401 11.3078 105.921 11.3078Z" fill="#E6E6E6"/>
<path d="M109.286 10.601C109.286 10.1299 109.398 9.75751 109.623 9.48394C109.863 9.19517 110.125 9.05078 110.41 9.05078C111.37 9.05078 111.849 9.84871 111.849 11.4446C112.854 12.0221 113.618 12.4933 114.143 12.858C114.683 13.2076 115.192 13.7016 115.672 14.3399C116.152 14.963 116.421 15.7002 116.481 16.5513C116.901 15.913 117.238 15.3354 117.493 14.8187C117.748 14.3019 118.048 13.5952 118.393 12.6984C118.483 12.4857 118.588 12.3261 118.708 12.2197C118.828 12.0981 118.947 12.0373 119.067 12.0373C119.217 12.0373 119.337 12.1057 119.427 12.2425C119.532 12.3641 119.585 12.5313 119.585 12.744C119.585 12.9264 119.555 13.1012 119.495 13.2684C118.805 15.381 117.883 17.1288 116.729 18.5119C115.574 19.8798 114.225 20.5637 112.681 20.5637C112.157 20.5637 111.714 20.4497 111.355 20.2218C110.995 19.9786 110.725 19.6822 110.545 19.3326C110.38 18.9831 110.298 18.6411 110.298 18.3067C110.298 17.6076 110.418 17.258 110.657 17.258C110.762 17.258 110.875 17.334 110.995 17.486C111.22 17.7292 111.459 17.8508 111.714 17.8508C112.029 17.8508 112.299 17.7368 112.524 17.5088C112.749 17.2656 112.914 16.9769 113.019 16.6425C113.138 16.3081 113.198 16.0041 113.198 15.7306C113.198 14.4539 112.374 13.428 110.725 12.6529C110.35 12.4553 110.013 12.1817 109.713 11.8321C109.428 11.4826 109.286 11.0722 109.286 10.601Z" fill="#E6E6E6"/>
<path d="M133.959 12.7212C134.124 12.2653 134.341 12.0373 134.611 12.0373C134.746 12.0373 134.866 12.1133 134.971 12.2653C135.076 12.4173 135.128 12.6073 135.128 12.8352C135.128 12.9568 135.106 13.1012 135.061 13.2684C134.671 14.5147 134.146 15.6926 133.487 16.8021C132.842 17.8964 132.07 18.8007 131.171 19.515C130.271 20.2142 129.297 20.5637 128.247 20.5637C127.588 20.5637 126.951 20.3813 126.336 20.0166C125.736 19.6518 125.249 19.1047 124.874 18.3751C124.5 17.6456 124.312 16.7717 124.312 15.7534C124.297 14.8415 124.5 13.9295 124.919 13.0176C125.339 12.0905 125.916 11.3306 126.651 10.7378C127.385 10.1451 128.203 9.84871 129.102 9.84871C129.911 9.84871 130.549 10.0615 131.013 10.487C131.478 10.9126 131.71 11.4522 131.71 12.1057C131.71 13.0176 131.298 13.7624 130.474 14.3399C129.649 14.9022 128.63 15.2062 127.415 15.2518V15.3658C127.415 16.1713 127.535 16.7869 127.775 17.2124C128.015 17.638 128.45 17.8508 129.079 17.8508C129.634 17.8508 130.234 17.6 130.878 17.0984C131.538 16.5817 132.145 15.9282 132.7 15.1378C133.254 14.3323 133.674 13.5268 133.959 12.7212ZM129.462 11.3078C129.012 11.3078 128.63 11.551 128.315 12.0373C128 12.5085 127.76 13.1012 127.595 13.8155C128.315 13.7699 128.922 13.6028 129.417 13.314C129.926 13.0252 130.181 12.6225 130.181 12.1057C130.181 11.5737 129.941 11.3078 129.462 11.3078Z" fill="#E6E6E6"/>
<path d="M158.839 0.455959C158.839 0.243179 158.899 0.136789 159.019 0.136789C159.154 0.136789 159.303 0.273576 159.468 0.547151C159.648 0.820727 159.738 1.1095 159.738 1.41347C159.738 2.43178 159.356 3.17651 158.591 3.64767C157.827 4.11883 156.837 4.35441 155.623 4.35441C154.889 4.35441 154.154 4.23282 153.419 3.98964C152.7 3.74646 151.77 3.38169 150.631 2.89534C149.477 2.39378 148.495 2.01382 147.685 1.75544C146.891 1.49706 146.089 1.36788 145.279 1.36788C144.17 1.36788 143.308 1.63385 142.693 2.1658C142.094 2.69776 141.794 3.39689 141.794 4.26321C141.794 5.02314 142.071 5.62349 142.626 6.06425C143.181 6.50501 143.99 6.72539 145.055 6.72539C145.459 6.72539 145.662 6.84698 145.662 7.09016C145.662 7.31814 145.497 7.54611 145.167 7.77409C144.852 8.00207 144.477 8.11606 144.043 8.11606C143.278 8.11606 142.574 7.94128 141.929 7.59171C141.299 7.24214 140.79 6.76339 140.4 6.15544C140.025 5.5323 139.838 4.84836 139.838 4.10363C139.838 3.3133 140.048 2.60656 140.467 1.98342C140.902 1.36028 141.524 0.873921 142.334 0.524352C143.143 0.174784 144.08 0 145.144 0C145.804 0 146.486 0.0759935 147.191 0.22798C147.91 0.364768 148.832 0.585148 149.957 0.88912C151.276 1.23869 152.363 1.50466 153.217 1.68705C154.087 1.85423 154.971 1.93782 155.87 1.93782C156.71 1.93782 157.415 1.80864 157.984 1.55026C158.554 1.27668 158.839 0.911918 158.839 0.455959ZM144.537 21.9772C143.788 21.9772 143.068 21.7796 142.379 21.3845C141.704 20.9893 141.157 20.4269 140.737 19.6974C140.317 18.9527 140.107 18.094 140.107 17.1212C140.107 16.3461 140.272 15.6546 140.602 15.0466C140.947 14.4235 141.389 13.9371 141.929 13.5876C142.469 13.238 143.023 13.0632 143.593 13.0632C143.998 13.0632 144.35 13.1696 144.65 13.3824C144.965 13.58 145.122 13.7775 145.122 13.9751C145.122 14.1575 144.957 14.2487 144.627 14.2487C143.878 14.2487 143.218 14.4691 142.648 14.9098C142.079 15.3506 141.794 15.951 141.794 16.7109C141.794 17.3492 142.011 17.866 142.446 18.2611C142.881 18.6563 143.428 18.8539 144.088 18.8539C144.912 18.8539 145.602 18.5499 146.156 17.942C146.726 17.334 147.183 16.5817 147.528 15.685C147.888 14.7883 148.3 13.5724 148.765 12.0373C149.185 10.6238 149.559 9.48394 149.889 8.61762C150.219 7.7361 150.631 6.94577 151.126 6.24663C151.636 5.5323 152.25 5.05354 152.97 4.81036C153.105 4.76477 153.232 4.74197 153.352 4.74197C153.532 4.74197 153.689 4.77997 153.824 4.85596C153.959 4.93195 154.027 5.03074 154.027 5.15233C154.027 5.24352 153.967 5.36511 153.847 5.5171C153.247 6.18584 152.797 7.05216 152.498 8.11606C152.213 9.16477 151.928 10.5782 151.643 12.3565C151.313 14.4691 150.953 16.1561 150.564 17.4176C150.189 18.6791 149.522 19.7506 148.562 20.6321C147.618 21.5288 146.276 21.9772 144.537 21.9772Z" fill="#E6E6E6"/>
<path d="M154.106 16.4601C154.106 15.3202 154.353 14.2487 154.848 13.2456C155.343 12.2273 155.995 11.4142 156.804 10.8062C157.629 10.1831 158.498 9.8715 159.413 9.8715C159.653 9.8715 159.855 9.9399 160.02 10.0767C160.185 10.1983 160.267 10.3503 160.267 10.5326C160.267 10.7454 160.132 10.9278 159.863 11.0798C158.933 11.5813 158.251 12.2501 157.816 13.086C157.382 13.9067 157.164 14.7503 157.164 15.6166C157.164 16.3461 157.269 16.9009 157.479 17.2808C157.689 17.6608 157.966 17.8508 158.311 17.8508C158.701 17.8508 159.061 17.638 159.39 17.2124C159.72 16.7717 159.96 16.2473 160.11 15.6394C159.72 15.381 159.42 15.039 159.21 14.6135C159.001 14.1879 158.896 13.7396 158.896 13.2684C158.896 12.7516 159.016 12.3337 159.255 12.0145C159.495 11.6953 159.788 11.5358 160.132 11.5358C160.717 11.5358 161.152 11.8169 161.437 12.3793C161.721 12.9264 161.864 13.6408 161.864 14.5223C162.209 14.5223 162.583 14.3855 162.988 14.1119C163.408 13.8231 163.76 13.352 164.045 12.6984C164.255 12.2425 164.48 12.0145 164.72 12.0145C164.855 12.0145 164.967 12.0905 165.057 12.2425C165.147 12.3945 165.192 12.5921 165.192 12.8352C165.192 12.9112 165.177 13.0556 165.147 13.2684C165.072 13.694 164.877 14.1195 164.562 14.5451C164.247 14.9706 163.843 15.3278 163.348 15.6166C162.853 15.9054 162.314 16.0649 161.729 16.0953C161.504 17.2808 161.054 18.3219 160.38 19.2187C159.705 20.1154 158.851 20.5637 157.816 20.5637C157.142 20.5637 156.52 20.3965 155.95 20.0622C155.38 19.7126 154.931 19.2263 154.601 18.6031C154.271 17.98 154.106 17.2656 154.106 16.4601Z" fill="#E6E6E6"/>
<path d="M167.475 20.5637C166.771 20.5637 166.186 20.2522 165.721 19.629C165.272 18.9907 165.047 18.2535 165.047 17.4176C165.047 16.9769 165.099 16.5513 165.204 16.1409C165.324 15.7154 165.482 15.2518 165.677 14.7503C165.841 14.3095 165.924 14.0283 165.924 13.9067C165.924 13.7092 165.826 13.5344 165.632 13.3824C165.452 13.2304 165.174 13.0556 164.8 12.858C164.2 12.5389 163.735 12.2197 163.405 11.9005C163.076 11.5813 162.911 11.1482 162.911 10.601C162.911 10.1299 163.031 9.75751 163.27 9.48394C163.51 9.19517 163.765 9.05078 164.035 9.05078C164.5 9.05078 164.852 9.25596 165.092 9.66632C165.347 10.0767 165.474 10.677 165.474 11.4674C165.669 11.6345 165.894 11.7637 166.149 11.8549C166.404 11.9461 166.748 12.0449 167.183 12.1513C167.858 12.3185 168.36 12.5085 168.69 12.7212C169.02 12.934 169.184 13.2988 169.184 13.8155C169.184 13.9827 169.132 14.1879 169.027 14.4311C168.922 14.6591 168.81 14.887 168.69 15.115C168.465 15.5102 168.292 15.8598 168.173 16.1637C168.053 16.4525 167.993 16.7565 167.993 17.0756C167.993 17.5924 168.15 17.8508 168.465 17.8508C168.93 17.8508 169.484 17.3948 170.129 16.4829C170.773 15.5558 171.433 14.2943 172.108 12.6984C172.198 12.4857 172.303 12.3261 172.422 12.2197C172.557 12.0981 172.685 12.0373 172.805 12.0373C172.94 12.0373 173.052 12.0981 173.142 12.2197C173.247 12.3413 173.299 12.5085 173.299 12.7212C173.299 12.9036 173.269 13.086 173.209 13.2684C172.52 15.3506 171.665 17.0908 170.646 18.4891C169.642 19.8722 168.585 20.5637 167.475 20.5637Z" fill="#E6E6E6"/>
<path d="M186.597 4.26321C187.766 4.26321 188.696 4.49879 189.385 4.96995C190.09 5.42591 190.442 6.12504 190.442 7.06736C190.442 7.47772 190.36 7.81969 190.195 8.09326C190.03 8.36684 189.872 8.50363 189.722 8.50363C189.573 8.50363 189.498 8.38204 189.498 8.13886C189.498 7.6981 189.213 7.34093 188.643 7.06736C188.073 6.79378 187.271 6.657 186.237 6.657C185.517 6.657 184.693 6.76339 183.764 6.97617C182.834 7.18895 181.597 7.50812 180.053 7.93368C178.209 8.45043 176.725 8.8304 175.601 9.07358C175.271 10.2439 175.046 11.3078 174.926 12.2653C174.821 13.2228 174.769 14.2183 174.769 15.2518C174.769 16.1941 174.859 16.8629 175.039 17.258C175.219 17.6532 175.436 17.8508 175.691 17.8508C176.096 17.8508 176.523 17.4708 176.973 16.7109C177.422 15.951 178.03 14.6135 178.794 12.6984C178.884 12.4857 178.989 12.3261 179.109 12.2197C179.229 12.0981 179.356 12.0373 179.491 12.0373C179.626 12.0373 179.738 12.1057 179.828 12.2425C179.933 12.3641 179.986 12.5313 179.986 12.744C179.986 12.9112 179.956 13.086 179.896 13.2684C179.326 15.001 178.854 16.3309 178.479 17.258C178.104 18.1851 177.64 18.9679 177.085 19.6062C176.545 20.2446 175.893 20.5637 175.129 20.5637C174.139 20.5637 173.337 20.1078 172.723 19.1959C172.123 18.2687 171.823 17.0073 171.823 15.4114C171.823 14.6363 171.898 13.732 172.048 12.6984C172.198 11.6649 172.43 10.6086 172.745 9.52953C172.235 9.55993 171.861 9.57513 171.621 9.57513C171.231 9.57513 170.924 9.49914 170.699 9.34715C170.459 9.17997 170.339 9.00518 170.339 8.8228C170.339 8.48843 170.542 8.32124 170.946 8.32124C171.591 8.32124 172.333 8.26805 173.172 8.16166C173.397 7.53852 173.667 6.89257 173.982 6.22384C174.192 5.78307 174.522 5.43351 174.971 5.17513C175.436 4.90156 175.871 4.76477 176.276 4.76477C176.485 4.76477 176.65 4.81036 176.77 4.90156C176.89 4.97755 176.95 5.09154 176.95 5.24352C176.95 5.33472 176.928 5.44111 176.883 5.56269C176.628 6.17064 176.373 6.81658 176.118 7.50052C177.183 7.19655 178.667 6.67219 180.57 5.92746C182.115 5.34991 183.314 4.93195 184.168 4.67358C185.038 4.4 185.847 4.26321 186.597 4.26321Z" fill="#E6E6E6"/>
<path d="M177.734 16.3461C177.734 15.3126 177.944 14.2943 178.364 13.2912C178.784 12.2729 179.361 11.4446 180.095 10.8062C180.845 10.1679 181.662 9.84871 182.546 9.84871C183.071 9.84871 183.513 9.99309 183.873 10.2819C184.248 10.5706 184.54 10.9582 184.75 11.4446C185.005 11.1254 185.32 10.8822 185.695 10.715C186.069 10.5326 186.429 10.4415 186.774 10.4415C187.014 10.4415 187.209 10.487 187.359 10.5782C187.523 10.6694 187.606 10.7986 187.606 10.9658C187.606 11.057 187.583 11.1482 187.538 11.2394C187.299 11.7865 187.096 12.5541 186.931 13.542C186.766 14.5147 186.684 15.2746 186.684 15.8218C186.684 16.5665 186.759 17.0908 186.909 17.3948C187.059 17.6988 187.269 17.8508 187.538 17.8508C188.003 17.8508 188.468 17.4556 188.933 16.6653C189.412 15.875 190.034 14.5527 190.799 12.6984C190.889 12.4857 190.994 12.3261 191.114 12.2197C191.234 12.0981 191.361 12.0373 191.496 12.0373C191.631 12.0373 191.743 12.1057 191.833 12.2425C191.938 12.3641 191.991 12.5313 191.991 12.744C191.991 12.9112 191.961 13.086 191.901 13.2684C191.211 15.3658 190.394 17.106 189.45 18.4891C188.505 19.8722 187.553 20.5637 186.594 20.5637C185.994 20.5637 185.47 20.3813 185.02 20.0166C184.585 19.6366 184.255 19.1275 184.031 18.4891C183.251 19.8722 182.314 20.5637 181.22 20.5637C180.185 20.5637 179.346 20.1838 178.701 19.4238C178.057 18.6639 177.734 17.638 177.734 16.3461ZM180.793 16.2777C180.793 16.7185 180.867 17.0908 181.017 17.3948C181.182 17.6988 181.377 17.8508 181.602 17.8508C181.917 17.8508 182.232 17.676 182.546 17.3264C182.876 16.9769 183.161 16.4905 183.401 15.8674C183.641 15.2442 183.806 14.5451 183.896 13.7699C183.911 13.6332 183.918 13.4432 183.918 13.2C183.918 12.6225 183.821 12.2045 183.626 11.9461C183.431 11.6725 183.191 11.5358 182.906 11.5358C182.561 11.5358 182.224 11.7865 181.894 12.2881C181.58 12.7744 181.317 13.39 181.107 14.1347C180.897 14.8794 180.793 15.5938 180.793 16.2777Z" fill="#E6E6E6"/>
<path d="M189.701 10.601C189.701 10.1299 189.814 9.75751 190.038 9.48394C190.278 9.19517 190.541 9.05078 190.826 9.05078C191.785 9.05078 192.265 9.84871 192.265 11.4446C193.269 12.0221 194.034 12.4933 194.558 12.858C195.098 13.2076 195.608 13.7016 196.087 14.3399C196.567 14.963 196.837 15.7002 196.897 16.5513C197.317 15.913 197.654 15.3354 197.909 14.8187C198.164 14.3019 198.463 13.5952 198.808 12.6984C198.898 12.4857 199.003 12.3261 199.123 12.2197C199.243 12.0981 199.363 12.0373 199.483 12.0373C199.633 12.0373 199.753 12.1057 199.843 12.2425C199.948 12.3641 200 12.5313 200 12.744C200 12.9264 199.97 13.1012 199.91 13.2684C199.22 15.381 198.299 17.1288 197.144 18.5119C195.99 19.8798 194.641 20.5637 193.097 20.5637C192.572 20.5637 192.13 20.4497 191.77 20.2218C191.41 19.9786 191.14 19.6822 190.96 19.3326C190.796 18.9831 190.713 18.6411 190.713 18.3067C190.713 17.6076 190.833 17.258 191.073 17.258C191.178 17.258 191.29 17.334 191.41 17.486C191.635 17.7292 191.875 17.8508 192.13 17.8508C192.445 17.8508 192.714 17.7368 192.939 17.5088C193.164 17.2656 193.329 16.9769 193.434 16.6425C193.554 16.3081 193.614 16.0041 193.614 15.7306C193.614 14.4539 192.789 13.428 191.14 12.6529C190.766 12.4553 190.428 12.1817 190.128 11.8321C189.844 11.4826 189.701 11.0722 189.701 10.601Z" fill="#E6E6E6"/>
</svg>
